<mxfile host="Electron" modified="2024-09-09T18:38:28.771Z" agent="Mozilla/5.0 (Macintosh; Intel Mac OS X 10_15_7) AppleWebKit/537.36 (KHTML, like Gecko) draw.io/22.1.21 Chrome/120.0.6099.109 Electron/28.1.0 Safari/537.36" etag="sVHOHSUQbZPmUBEQ0rSk" version="22.1.21" type="device" pages="4">
  <diagram name="Crow&#39;s Foot" id="bF-gxGIfsyKX1Cjtiylx">
    <mxGraphModel dx="863" dy="590" grid="1" gridSize="10" guides="1" tooltips="1" connect="1" arrows="1" fold="1" page="1" pageScale="1" pageWidth="827" pageHeight="1169" math="0" shadow="0">
      <root>
        <mxCell id="0" />
        <mxCell id="1" parent="0" />
        <mxCell id="tb36dIToWx31wIrT7QEO-2" value="users" style="swimlane;childLayout=stackLayout;horizontal=1;startSize=50;horizontalStack=0;rounded=1;fontSize=14;fontStyle=0;strokeWidth=2;resizeParent=0;resizeLast=1;shadow=0;dashed=0;align=center;arcSize=4;whiteSpace=wrap;html=1;" parent="1" vertex="1">
          <mxGeometry x="240" y="280" width="160" height="150" as="geometry" />
        </mxCell>
        <mxCell id="tb36dIToWx31wIrT7QEO-3" value="*id&lt;br&gt;email&lt;br&gt;password&lt;br&gt;nickname&lt;br&gt;photo" style="align=left;strokeColor=none;fillColor=none;spacingLeft=4;fontSize=12;verticalAlign=top;resizable=0;rotatable=0;part=1;html=1;" parent="tb36dIToWx31wIrT7QEO-2" vertex="1">
          <mxGeometry y="50" width="160" height="100" as="geometry" />
        </mxCell>
        <mxCell id="tb36dIToWx31wIrT7QEO-4" value="games" style="swimlane;childLayout=stackLayout;horizontal=1;startSize=50;horizontalStack=0;rounded=1;fontSize=14;fontStyle=0;strokeWidth=2;resizeParent=0;resizeLast=1;shadow=0;dashed=0;align=center;arcSize=4;whiteSpace=wrap;html=1;" parent="1" vertex="1">
          <mxGeometry x="890" y="186" width="160" height="120" as="geometry" />
        </mxCell>
        <mxCell id="tb36dIToWx31wIrT7QEO-5" value="*id&lt;br&gt;*platforms_id&lt;br&gt;name&lt;br&gt;rating" style="align=left;strokeColor=none;fillColor=none;spacingLeft=4;fontSize=12;verticalAlign=top;resizable=0;rotatable=0;part=1;html=1;" parent="tb36dIToWx31wIrT7QEO-4" vertex="1">
          <mxGeometry y="50" width="160" height="70" as="geometry" />
        </mxCell>
        <mxCell id="MSZuf4Zs8p3yNY16kM9s-25" value="" style="edgeStyle=entityRelationEdgeStyle;fontSize=12;html=1;endArrow=ERzeroToMany;startArrow=ERmandOne;rounded=0;exitX=1.005;exitY=0.423;exitDx=0;exitDy=0;endFill=0;startFill=0;entryX=0;entryY=0.25;entryDx=0;entryDy=0;exitPerimeter=0;" parent="1" source="tb36dIToWx31wIrT7QEO-3" target="DlGH1BfXSV8TEv-eqLE--20" edge="1">
          <mxGeometry width="100" height="100" relative="1" as="geometry">
            <mxPoint x="590" y="470" as="sourcePoint" />
            <mxPoint x="700" y="122" as="targetPoint" />
          </mxGeometry>
        </mxCell>
        <mxCell id="MSZuf4Zs8p3yNY16kM9s-26" value="Play" style="edgeLabel;html=1;align=center;verticalAlign=middle;resizable=0;points=[];" parent="MSZuf4Zs8p3yNY16kM9s-25" vertex="1" connectable="0">
          <mxGeometry x="-0.1466" y="1" relative="1" as="geometry">
            <mxPoint as="offset" />
          </mxGeometry>
        </mxCell>
        <mxCell id="lmceQTBNauvTOvnrZFQ2-1" value="achievements" style="swimlane;childLayout=stackLayout;horizontal=1;startSize=50;horizontalStack=0;rounded=1;fontSize=14;fontStyle=0;strokeWidth=2;resizeParent=0;resizeLast=1;shadow=0;dashed=0;align=center;arcSize=4;whiteSpace=wrap;html=1;" parent="1" vertex="1">
          <mxGeometry x="1120" y="310" width="160" height="130" as="geometry" />
        </mxCell>
        <mxCell id="lmceQTBNauvTOvnrZFQ2-2" value="*id&lt;br&gt;*games_id&lt;br&gt;name&lt;br&gt;description" style="align=left;strokeColor=none;fillColor=none;spacingLeft=4;fontSize=12;verticalAlign=top;resizable=0;rotatable=0;part=1;html=1;" parent="lmceQTBNauvTOvnrZFQ2-1" vertex="1">
          <mxGeometry y="50" width="160" height="80" as="geometry" />
        </mxCell>
        <mxCell id="WUFlc4S75lhLVQnJNK-M-3" value="" style="edgeStyle=entityRelationEdgeStyle;fontSize=12;html=1;endArrow=ERmandOne;endFill=0;startArrow=ERzeroToMany;rounded=0;entryX=0;entryY=0.75;entryDx=0;entryDy=0;exitX=1;exitY=0.5;exitDx=0;exitDy=0;startFill=0;" parent="1" source="DlGH1BfXSV8TEv-eqLE--16" target="lmceQTBNauvTOvnrZFQ2-2" edge="1">
          <mxGeometry width="100" height="100" relative="1" as="geometry">
            <mxPoint x="710" y="420" as="sourcePoint" />
            <mxPoint x="810" y="320" as="targetPoint" />
          </mxGeometry>
        </mxCell>
        <mxCell id="WUFlc4S75lhLVQnJNK-M-4" value="Get" style="edgeLabel;html=1;align=center;verticalAlign=middle;resizable=0;points=[];" parent="WUFlc4S75lhLVQnJNK-M-3" vertex="1" connectable="0">
          <mxGeometry x="0.1639" y="-2" relative="1" as="geometry">
            <mxPoint x="-75" y="58" as="offset" />
          </mxGeometry>
        </mxCell>
        <mxCell id="DlGH1BfXSV8TEv-eqLE--15" value="users_achievements" style="swimlane;childLayout=stackLayout;horizontal=1;startSize=50;horizontalStack=0;rounded=1;fontSize=14;fontStyle=0;strokeWidth=2;resizeParent=0;resizeLast=1;shadow=0;dashed=0;align=center;arcSize=4;whiteSpace=wrap;html=1;" parent="1" vertex="1">
          <mxGeometry x="660" y="550" width="160" height="90" as="geometry" />
        </mxCell>
        <mxCell id="DlGH1BfXSV8TEv-eqLE--16" value="*users_id&lt;br&gt;*achievements_id" style="align=left;strokeColor=none;fillColor=none;spacingLeft=4;fontSize=12;verticalAlign=top;resizable=0;rotatable=0;part=1;html=1;" parent="DlGH1BfXSV8TEv-eqLE--15" vertex="1">
          <mxGeometry y="50" width="160" height="40" as="geometry" />
        </mxCell>
        <mxCell id="DlGH1BfXSV8TEv-eqLE--17" value="" style="edgeStyle=entityRelationEdgeStyle;fontSize=12;html=1;endArrow=ERzeroToMany;endFill=0;startArrow=ERmandOne;rounded=0;exitX=1.005;exitY=0.593;exitDx=0;exitDy=0;startFill=0;entryX=0;entryY=0.5;entryDx=0;entryDy=0;exitPerimeter=0;" parent="1" source="tb36dIToWx31wIrT7QEO-3" target="DlGH1BfXSV8TEv-eqLE--16" edge="1">
          <mxGeometry width="100" height="100" relative="1" as="geometry">
            <mxPoint x="420" y="717" as="sourcePoint" />
            <mxPoint x="580" y="510" as="targetPoint" />
          </mxGeometry>
        </mxCell>
        <mxCell id="DlGH1BfXSV8TEv-eqLE--18" value="Get" style="edgeLabel;html=1;align=center;verticalAlign=middle;resizable=0;points=[];" parent="DlGH1BfXSV8TEv-eqLE--17" vertex="1" connectable="0">
          <mxGeometry x="0.1639" y="-2" relative="1" as="geometry">
            <mxPoint x="23" y="28" as="offset" />
          </mxGeometry>
        </mxCell>
        <mxCell id="DlGH1BfXSV8TEv-eqLE--19" value="users_games" style="swimlane;childLayout=stackLayout;horizontal=1;startSize=50;horizontalStack=0;rounded=1;fontSize=14;fontStyle=0;strokeWidth=2;resizeParent=0;resizeLast=1;shadow=0;dashed=0;align=center;arcSize=4;whiteSpace=wrap;html=1;" parent="1" vertex="1">
          <mxGeometry x="560" y="329" width="160" height="111" as="geometry" />
        </mxCell>
        <mxCell id="DlGH1BfXSV8TEv-eqLE--20" value="*users_id&lt;br&gt;*games_id&lt;br&gt;users_rating" style="align=left;strokeColor=none;fillColor=none;spacingLeft=4;fontSize=12;verticalAlign=top;resizable=0;rotatable=0;part=1;html=1;" parent="DlGH1BfXSV8TEv-eqLE--19" vertex="1">
          <mxGeometry y="50" width="160" height="61" as="geometry" />
        </mxCell>
        <mxCell id="DlGH1BfXSV8TEv-eqLE--23" value="" style="edgeStyle=entityRelationEdgeStyle;fontSize=12;html=1;endArrow=ERmandOne;startArrow=ERzeroToMany;rounded=0;exitX=1;exitY=0.25;exitDx=0;exitDy=0;endFill=0;startFill=0;entryX=0;entryY=0.5;entryDx=0;entryDy=0;" parent="1" source="DlGH1BfXSV8TEv-eqLE--20" target="tb36dIToWx31wIrT7QEO-5" edge="1">
          <mxGeometry width="100" height="100" relative="1" as="geometry">
            <mxPoint x="540" y="480" as="sourcePoint" />
            <mxPoint x="920" y="254" as="targetPoint" />
          </mxGeometry>
        </mxCell>
        <mxCell id="DlGH1BfXSV8TEv-eqLE--24" value="Consist" style="edgeLabel;html=1;align=center;verticalAlign=middle;resizable=0;points=[];" parent="DlGH1BfXSV8TEv-eqLE--23" vertex="1" connectable="0">
          <mxGeometry x="-0.1466" y="1" relative="1" as="geometry">
            <mxPoint x="-13" y="11" as="offset" />
          </mxGeometry>
        </mxCell>
        <mxCell id="YScgUMNmZlCkbq35-LPN-1" value="platforms" style="swimlane;childLayout=stackLayout;horizontal=1;startSize=50;horizontalStack=0;rounded=1;fontSize=14;fontStyle=0;strokeWidth=2;resizeParent=0;resizeLast=1;shadow=0;dashed=0;align=center;arcSize=4;whiteSpace=wrap;html=1;" parent="1" vertex="1">
          <mxGeometry x="580" y="450" width="120" height="90" as="geometry" />
        </mxCell>
        <mxCell id="YScgUMNmZlCkbq35-LPN-2" value="*id&lt;br&gt;name" style="align=left;strokeColor=none;fillColor=none;spacingLeft=4;fontSize=12;verticalAlign=top;resizable=0;rotatable=0;part=1;html=1;" parent="YScgUMNmZlCkbq35-LPN-1" vertex="1">
          <mxGeometry y="50" width="120" height="40" as="geometry" />
        </mxCell>
        <mxCell id="RW3MD-CGys-qWrQYKsYx-5" value="" style="edgeStyle=entityRelationEdgeStyle;fontSize=12;html=1;endArrow=ERoneToMany;startArrow=ERmandOne;rounded=0;exitX=1;exitY=0.25;exitDx=0;exitDy=0;entryX=0;entryY=0.75;entryDx=0;entryDy=0;endFill=0;startFill=0;" parent="1" source="YScgUMNmZlCkbq35-LPN-1" target="tb36dIToWx31wIrT7QEO-5" edge="1">
          <mxGeometry width="100" height="100" relative="1" as="geometry">
            <mxPoint x="760" y="771" as="sourcePoint" />
            <mxPoint x="780" y="490" as="targetPoint" />
          </mxGeometry>
        </mxCell>
        <mxCell id="RW3MD-CGys-qWrQYKsYx-6" value="Consist" style="edgeLabel;html=1;align=center;verticalAlign=middle;resizable=0;points=[];" parent="RW3MD-CGys-qWrQYKsYx-5" vertex="1" connectable="0">
          <mxGeometry x="-0.1466" y="1" relative="1" as="geometry">
            <mxPoint as="offset" />
          </mxGeometry>
        </mxCell>
        <mxCell id="7H_fT3wbaiRr-LGyIh4a-1" value="achievements_platforms" style="swimlane;childLayout=stackLayout;horizontal=1;startSize=50;horizontalStack=0;rounded=1;fontSize=14;fontStyle=0;strokeWidth=2;resizeParent=0;resizeLast=1;shadow=0;dashed=0;align=center;arcSize=4;whiteSpace=wrap;html=1;" parent="1" vertex="1">
          <mxGeometry x="810" y="410" width="160" height="90" as="geometry" />
        </mxCell>
        <mxCell id="7H_fT3wbaiRr-LGyIh4a-2" value="*platforms_id&lt;br&gt;*achievements_id" style="align=left;strokeColor=none;fillColor=none;spacingLeft=4;fontSize=12;verticalAlign=top;resizable=0;rotatable=0;part=1;html=1;" parent="7H_fT3wbaiRr-LGyIh4a-1" vertex="1">
          <mxGeometry y="50" width="160" height="40" as="geometry" />
        </mxCell>
        <mxCell id="7H_fT3wbaiRr-LGyIh4a-4" value="" style="edgeStyle=entityRelationEdgeStyle;fontSize=12;html=1;endArrow=ERzeroToMany;startArrow=ERmandOne;rounded=0;exitX=1;exitY=0.5;exitDx=0;exitDy=0;entryX=0;entryY=0;entryDx=0;entryDy=0;endFill=0;startFill=0;" parent="1" source="YScgUMNmZlCkbq35-LPN-2" target="7H_fT3wbaiRr-LGyIh4a-2" edge="1">
          <mxGeometry width="100" height="100" relative="1" as="geometry">
            <mxPoint x="570" y="564" as="sourcePoint" />
            <mxPoint x="670" y="460" as="targetPoint" />
          </mxGeometry>
        </mxCell>
        <mxCell id="7H_fT3wbaiRr-LGyIh4a-5" value="Consist" style="edgeLabel;html=1;align=center;verticalAlign=middle;resizable=0;points=[];" parent="7H_fT3wbaiRr-LGyIh4a-4" vertex="1" connectable="0">
          <mxGeometry x="-0.1466" y="1" relative="1" as="geometry">
            <mxPoint x="5" y="4" as="offset" />
          </mxGeometry>
        </mxCell>
        <mxCell id="7H_fT3wbaiRr-LGyIh4a-6" value="" style="edgeStyle=entityRelationEdgeStyle;fontSize=12;html=1;endArrow=ERmandOne;startArrow=ERzeroToMany;rounded=0;exitX=1;exitY=0;exitDx=0;exitDy=0;endFill=0;startFill=0;entryX=0;entryY=0.5;entryDx=0;entryDy=0;" parent="1" source="7H_fT3wbaiRr-LGyIh4a-2" target="lmceQTBNauvTOvnrZFQ2-2" edge="1">
          <mxGeometry width="100" height="100" relative="1" as="geometry">
            <mxPoint x="630" y="380" as="sourcePoint" />
            <mxPoint x="1200" y="354" as="targetPoint" />
          </mxGeometry>
        </mxCell>
        <mxCell id="7H_fT3wbaiRr-LGyIh4a-7" value="Consist" style="edgeLabel;html=1;align=center;verticalAlign=middle;resizable=0;points=[];" parent="7H_fT3wbaiRr-LGyIh4a-6" vertex="1" connectable="0">
          <mxGeometry x="-0.1466" y="1" relative="1" as="geometry">
            <mxPoint x="-8" as="offset" />
          </mxGeometry>
        </mxCell>
        <mxCell id="7H_fT3wbaiRr-LGyIh4a-8" value="" style="edgeStyle=entityRelationEdgeStyle;fontSize=12;html=1;endArrow=ERzeroToMany;startArrow=ERmandOne;rounded=0;exitX=1;exitY=0.5;exitDx=0;exitDy=0;entryX=0;entryY=0.25;entryDx=0;entryDy=0;endFill=0;startFill=0;" parent="1" source="tb36dIToWx31wIrT7QEO-5" target="lmceQTBNauvTOvnrZFQ2-2" edge="1">
          <mxGeometry width="100" height="100" relative="1" as="geometry">
            <mxPoint x="1050" y="400" as="sourcePoint" />
            <mxPoint x="1160" y="315" as="targetPoint" />
          </mxGeometry>
        </mxCell>
        <mxCell id="7H_fT3wbaiRr-LGyIh4a-9" value="Consist" style="edgeLabel;html=1;align=center;verticalAlign=middle;resizable=0;points=[];" parent="7H_fT3wbaiRr-LGyIh4a-8" vertex="1" connectable="0">
          <mxGeometry x="-0.1466" y="1" relative="1" as="geometry">
            <mxPoint as="offset" />
          </mxGeometry>
        </mxCell>
        <mxCell id="CP3n0R3POWeE--M3ENOG-1" value="comments" style="swimlane;childLayout=stackLayout;horizontal=1;startSize=50;horizontalStack=0;rounded=1;fontSize=14;fontStyle=0;strokeWidth=2;resizeParent=0;resizeLast=1;shadow=0;dashed=0;align=center;arcSize=4;whiteSpace=wrap;html=1;" parent="1" vertex="1">
          <mxGeometry x="560" y="170" width="160" height="150" as="geometry" />
        </mxCell>
        <mxCell id="CP3n0R3POWeE--M3ENOG-2" value="*id&lt;br&gt;*users_id&lt;br&gt;*games_id&lt;br&gt;description&lt;br&gt;date&lt;br&gt;time" style="align=left;strokeColor=none;fillColor=none;spacingLeft=4;fontSize=12;verticalAlign=top;resizable=0;rotatable=0;part=1;html=1;" parent="CP3n0R3POWeE--M3ENOG-1" vertex="1">
          <mxGeometry y="50" width="160" height="100" as="geometry" />
        </mxCell>
        <mxCell id="CP3n0R3POWeE--M3ENOG-3" value="" style="edgeStyle=entityRelationEdgeStyle;fontSize=12;html=1;endArrow=ERzeroToMany;startArrow=ERmandOne;rounded=0;entryX=0;entryY=0.5;entryDx=0;entryDy=0;endFill=0;startFill=0;exitX=1;exitY=0.25;exitDx=0;exitDy=0;" parent="1" source="tb36dIToWx31wIrT7QEO-3" target="CP3n0R3POWeE--M3ENOG-2" edge="1">
          <mxGeometry width="100" height="100" relative="1" as="geometry">
            <mxPoint x="700" y="-155" as="sourcePoint" />
            <mxPoint x="960" y="75" as="targetPoint" />
          </mxGeometry>
        </mxCell>
        <mxCell id="CP3n0R3POWeE--M3ENOG-4" value="Write" style="edgeLabel;html=1;align=center;verticalAlign=middle;resizable=0;points=[];" parent="CP3n0R3POWeE--M3ENOG-3" vertex="1" connectable="0">
          <mxGeometry x="-0.1466" y="1" relative="1" as="geometry">
            <mxPoint as="offset" />
          </mxGeometry>
        </mxCell>
        <mxCell id="CP3n0R3POWeE--M3ENOG-5" value="" style="edgeStyle=entityRelationEdgeStyle;fontSize=12;html=1;endArrow=ERmandOne;startArrow=ERzeroToMany;rounded=0;entryX=0;entryY=0.25;entryDx=0;entryDy=0;endFill=0;startFill=0;exitX=1;exitY=0.5;exitDx=0;exitDy=0;" parent="1" source="CP3n0R3POWeE--M3ENOG-2" target="tb36dIToWx31wIrT7QEO-5" edge="1">
          <mxGeometry width="100" height="100" relative="1" as="geometry">
            <mxPoint x="660" y="254.5" as="sourcePoint" />
            <mxPoint x="900" y="55.5" as="targetPoint" />
          </mxGeometry>
        </mxCell>
        <mxCell id="CP3n0R3POWeE--M3ENOG-6" value="Consist" style="edgeLabel;html=1;align=center;verticalAlign=middle;resizable=0;points=[];" parent="CP3n0R3POWeE--M3ENOG-5" vertex="1" connectable="0">
          <mxGeometry x="-0.1466" y="1" relative="1" as="geometry">
            <mxPoint as="offset" />
          </mxGeometry>
        </mxCell>
        <mxCell id="CP3n0R3POWeE--M3ENOG-7" value="friends" style="swimlane;childLayout=stackLayout;horizontal=1;startSize=50;horizontalStack=0;rounded=1;fontSize=14;fontStyle=0;strokeWidth=2;resizeParent=0;resizeLast=1;shadow=0;dashed=0;align=center;arcSize=4;whiteSpace=wrap;html=1;" parent="1" vertex="1">
          <mxGeometry x="240" y="450" width="160" height="100" as="geometry" />
        </mxCell>
        <mxCell id="CP3n0R3POWeE--M3ENOG-8" value="*user_a_id&lt;br&gt;*user_b_id" style="align=left;strokeColor=none;fillColor=none;spacingLeft=4;fontSize=12;verticalAlign=top;resizable=0;rotatable=0;part=1;html=1;" parent="CP3n0R3POWeE--M3ENOG-7" vertex="1">
          <mxGeometry y="50" width="160" height="50" as="geometry" />
        </mxCell>
        <mxCell id="CP3n0R3POWeE--M3ENOG-9" value="" style="edgeStyle=entityRelationEdgeStyle;fontSize=12;html=1;endArrow=ERzeroToOne;endFill=0;startArrow=ERoneToMany;rounded=0;exitX=1;exitY=0.75;exitDx=0;exitDy=0;startFill=0;entryX=1;entryY=0.5;entryDx=0;entryDy=0;" parent="1" source="tb36dIToWx31wIrT7QEO-3" target="CP3n0R3POWeE--M3ENOG-8" edge="1">
          <mxGeometry width="100" height="100" relative="1" as="geometry">
            <mxPoint x="420" y="500" as="sourcePoint" />
            <mxPoint x="720" y="771" as="targetPoint" />
          </mxGeometry>
        </mxCell>
        <mxCell id="CP3n0R3POWeE--M3ENOG-10" value="Have" style="edgeLabel;html=1;align=center;verticalAlign=middle;resizable=0;points=[];" parent="CP3n0R3POWeE--M3ENOG-9" vertex="1" connectable="0">
          <mxGeometry x="0.1639" y="-2" relative="1" as="geometry">
            <mxPoint x="2" y="-15" as="offset" />
          </mxGeometry>
        </mxCell>
        <mxCell id="CP3n0R3POWeE--M3ENOG-16" value="" style="edgeStyle=orthogonalEdgeStyle;fontSize=12;html=1;endArrow=ERoneToMany;endFill=0;startArrow=ERzeroToOne;rounded=0;exitX=0;exitY=0.5;exitDx=0;exitDy=0;startFill=0;entryX=0;entryY=0.5;entryDx=0;entryDy=0;strokeColor=default;" parent="1" source="CP3n0R3POWeE--M3ENOG-8" target="tb36dIToWx31wIrT7QEO-3" edge="1">
          <mxGeometry width="100" height="100" relative="1" as="geometry">
            <mxPoint x="160" y="370" as="sourcePoint" />
            <mxPoint x="160" y="496" as="targetPoint" />
            <Array as="points">
              <mxPoint x="210" y="525" />
              <mxPoint x="210" y="380" />
            </Array>
          </mxGeometry>
        </mxCell>
        <mxCell id="CP3n0R3POWeE--M3ENOG-17" value="Have" style="edgeLabel;html=1;align=center;verticalAlign=middle;resizable=0;points=[];" parent="CP3n0R3POWeE--M3ENOG-16" vertex="1" connectable="0">
          <mxGeometry x="0.1639" y="-2" relative="1" as="geometry">
            <mxPoint x="-2" y="17" as="offset" />
          </mxGeometry>
        </mxCell>
        <mxCell id="CP3n0R3POWeE--M3ENOG-27" value="wishlists" style="swimlane;childLayout=stackLayout;horizontal=1;startSize=50;horizontalStack=0;rounded=1;fontSize=14;fontStyle=0;strokeWidth=2;resizeParent=0;resizeLast=1;shadow=0;dashed=0;align=center;arcSize=4;whiteSpace=wrap;html=1;" parent="1" vertex="1">
          <mxGeometry x="560" y="70" width="160" height="90" as="geometry" />
        </mxCell>
        <mxCell id="CP3n0R3POWeE--M3ENOG-28" value="*users_id&lt;br&gt;*games_id" style="align=left;strokeColor=none;fillColor=none;spacingLeft=4;fontSize=12;verticalAlign=top;resizable=0;rotatable=0;part=1;html=1;" parent="CP3n0R3POWeE--M3ENOG-27" vertex="1">
          <mxGeometry y="50" width="160" height="40" as="geometry" />
        </mxCell>
        <mxCell id="CP3n0R3POWeE--M3ENOG-29" value="" style="edgeStyle=entityRelationEdgeStyle;fontSize=12;html=1;endArrow=ERzeroToMany;startArrow=ERmandOne;rounded=0;entryX=0;entryY=0;entryDx=0;entryDy=0;endFill=0;startFill=0;exitX=1;exitY=0.085;exitDx=0;exitDy=0;exitPerimeter=0;" parent="1" source="tb36dIToWx31wIrT7QEO-3" target="CP3n0R3POWeE--M3ENOG-28" edge="1">
          <mxGeometry width="100" height="100" relative="1" as="geometry">
            <mxPoint x="410" y="348" as="sourcePoint" />
            <mxPoint x="570" y="153" as="targetPoint" />
          </mxGeometry>
        </mxCell>
        <mxCell id="CP3n0R3POWeE--M3ENOG-30" value="Add" style="edgeLabel;html=1;align=center;verticalAlign=middle;resizable=0;points=[];" parent="CP3n0R3POWeE--M3ENOG-29" vertex="1" connectable="0">
          <mxGeometry x="-0.1009" y="3" relative="1" as="geometry">
            <mxPoint x="29" y="-102" as="offset" />
          </mxGeometry>
        </mxCell>
        <mxCell id="CP3n0R3POWeE--M3ENOG-31" value="" style="edgeStyle=entityRelationEdgeStyle;fontSize=12;html=1;endArrow=ERmandOne;startArrow=ERzeroToMany;rounded=0;entryX=0;entryY=0;entryDx=0;entryDy=0;endFill=0;startFill=0;exitX=1;exitY=0;exitDx=0;exitDy=0;" parent="1" source="CP3n0R3POWeE--M3ENOG-28" target="tb36dIToWx31wIrT7QEO-5" edge="1">
          <mxGeometry width="100" height="100" relative="1" as="geometry">
            <mxPoint x="730" y="153" as="sourcePoint" />
            <mxPoint x="890" y="246" as="targetPoint" />
          </mxGeometry>
        </mxCell>
        <mxCell id="CP3n0R3POWeE--M3ENOG-32" value="Add" style="edgeLabel;html=1;align=center;verticalAlign=middle;resizable=0;points=[];" parent="CP3n0R3POWeE--M3ENOG-31" vertex="1" connectable="0">
          <mxGeometry x="-0.1466" y="1" relative="1" as="geometry">
            <mxPoint as="offset" />
          </mxGeometry>
        </mxCell>
      </root>
    </mxGraphModel>
  </diagram>
  <diagram id="tyUTnikfraOjsJ1HXr_B" name="Use Case">
    <mxGraphModel dx="863" dy="2928" grid="1" gridSize="10" guides="1" tooltips="1" connect="1" arrows="1" fold="1" page="1" pageScale="1" pageWidth="827" pageHeight="1169" math="0" shadow="0">
      <root>
        <mxCell id="0" />
        <mxCell id="1" parent="0" />
        <mxCell id="TI_vtxAUASJq9Ltse8uL-1" value="Authorized User" style="shape=umlActor;verticalLabelPosition=bottom;verticalAlign=top;html=1;" parent="1" vertex="1">
          <mxGeometry x="860" y="-1783" width="30" height="60" as="geometry" />
        </mxCell>
        <mxCell id="TI_vtxAUASJq9Ltse8uL-4" value="Add Game to Wishlist" style="ellipse;whiteSpace=wrap;html=1;align=center;" parent="1" vertex="1">
          <mxGeometry x="1470" y="-1800" width="100" height="40" as="geometry" />
        </mxCell>
        <mxCell id="_Uh7HaJhVwCaqcoWvli0-83" value="Watch Own Profile" style="ellipse;whiteSpace=wrap;html=1;align=center;" parent="1" vertex="1">
          <mxGeometry x="1058" y="-1860" width="100" height="40" as="geometry" />
        </mxCell>
        <mxCell id="_Uh7HaJhVwCaqcoWvli0-84" value="Edit Own Profile" style="ellipse;whiteSpace=wrap;html=1;align=center;" parent="1" vertex="1">
          <mxGeometry x="1258" y="-1960" width="100" height="40" as="geometry" />
        </mxCell>
        <mxCell id="_Uh7HaJhVwCaqcoWvli0-85" value="&amp;lt;&amp;lt;extend&amp;gt;&amp;gt;" style="html=1;verticalAlign=bottom;labelBackgroundColor=none;endArrow=open;endFill=0;dashed=1;rounded=0;entryX=0.5;entryY=0;entryDx=0;entryDy=0;exitX=0;exitY=0.5;exitDx=0;exitDy=0;" parent="1" source="_Uh7HaJhVwCaqcoWvli0-84" target="_Uh7HaJhVwCaqcoWvli0-83" edge="1">
          <mxGeometry width="160" relative="1" as="geometry">
            <mxPoint x="1188" y="-1730" as="sourcePoint" />
            <mxPoint x="1348" y="-1730" as="targetPoint" />
          </mxGeometry>
        </mxCell>
        <mxCell id="_Uh7HaJhVwCaqcoWvli0-86" value="Watch Games List" style="ellipse;whiteSpace=wrap;html=1;align=center;" parent="1" vertex="1">
          <mxGeometry x="1058" y="-1753" width="100" height="40" as="geometry" />
        </mxCell>
        <mxCell id="_Uh7HaJhVwCaqcoWvli0-90" value="Add Player to Friends" style="ellipse;whiteSpace=wrap;html=1;align=center;" parent="1" vertex="1">
          <mxGeometry x="1470" y="-1700" width="100" height="40" as="geometry" />
        </mxCell>
        <mxCell id="_Uh7HaJhVwCaqcoWvli0-92" value="Watch Own Games" style="ellipse;whiteSpace=wrap;html=1;align=center;" parent="1" vertex="1">
          <mxGeometry x="1258" y="-1910" width="100" height="40" as="geometry" />
        </mxCell>
        <mxCell id="_Uh7HaJhVwCaqcoWvli0-93" value="&amp;lt;&amp;lt;extend&amp;gt;&amp;gt;" style="html=1;verticalAlign=bottom;labelBackgroundColor=none;endArrow=open;endFill=0;dashed=1;rounded=0;entryX=1;entryY=0;entryDx=0;entryDy=0;exitX=0;exitY=0.5;exitDx=0;exitDy=0;" parent="1" source="_Uh7HaJhVwCaqcoWvli0-92" target="_Uh7HaJhVwCaqcoWvli0-83" edge="1">
          <mxGeometry width="160" relative="1" as="geometry">
            <mxPoint x="1268" y="-1900" as="sourcePoint" />
            <mxPoint x="1103" y="-1800" as="targetPoint" />
          </mxGeometry>
        </mxCell>
        <mxCell id="_Uh7HaJhVwCaqcoWvli0-94" value="Watch Games Achievements" style="ellipse;whiteSpace=wrap;html=1;align=center;" parent="1" vertex="1">
          <mxGeometry x="1436" y="-1910" width="100" height="40" as="geometry" />
        </mxCell>
        <mxCell id="_Uh7HaJhVwCaqcoWvli0-95" value="&amp;lt;&amp;lt;extend&amp;gt;&amp;gt;" style="html=1;verticalAlign=bottom;labelBackgroundColor=none;endArrow=open;endFill=0;dashed=1;rounded=0;entryX=1;entryY=0.5;entryDx=0;entryDy=0;exitX=0;exitY=0.5;exitDx=0;exitDy=0;" parent="1" source="_Uh7HaJhVwCaqcoWvli0-94" target="_Uh7HaJhVwCaqcoWvli0-92" edge="1">
          <mxGeometry width="160" relative="1" as="geometry">
            <mxPoint x="1268" y="-1860" as="sourcePoint" />
            <mxPoint x="1154" y="-1896" as="targetPoint" />
          </mxGeometry>
        </mxCell>
        <mxCell id="_Uh7HaJhVwCaqcoWvli0-96" value="Watch Friends" style="ellipse;whiteSpace=wrap;html=1;align=center;" parent="1" vertex="1">
          <mxGeometry x="1258" y="-1860" width="100" height="40" as="geometry" />
        </mxCell>
        <mxCell id="_Uh7HaJhVwCaqcoWvli0-98" value="&amp;lt;&amp;lt;extend&amp;gt;&amp;gt;" style="html=1;verticalAlign=bottom;labelBackgroundColor=none;endArrow=open;endFill=0;dashed=1;rounded=0;entryX=1;entryY=0.5;entryDx=0;entryDy=0;exitX=0;exitY=0.5;exitDx=0;exitDy=0;" parent="1" source="_Uh7HaJhVwCaqcoWvli0-96" target="_Uh7HaJhVwCaqcoWvli0-83" edge="1">
          <mxGeometry width="160" relative="1" as="geometry">
            <mxPoint x="1230" y="-1783" as="sourcePoint" />
            <mxPoint x="1130" y="-1753" as="targetPoint" />
          </mxGeometry>
        </mxCell>
        <mxCell id="_Uh7HaJhVwCaqcoWvli0-100" value="Watch Players List" style="ellipse;whiteSpace=wrap;html=1;align=center;" parent="1" vertex="1">
          <mxGeometry x="1058" y="-1670" width="100" height="40" as="geometry" />
        </mxCell>
        <mxCell id="_Uh7HaJhVwCaqcoWvli0-101" value="&amp;lt;&amp;lt;extend&amp;gt;&amp;gt;" style="html=1;verticalAlign=bottom;labelBackgroundColor=none;endArrow=open;endFill=0;dashed=1;rounded=0;exitX=0;exitY=0.5;exitDx=0;exitDy=0;entryX=0.986;entryY=0.314;entryDx=0;entryDy=0;entryPerimeter=0;" parent="1" source="TI_vtxAUASJq9Ltse8uL-4" target="_Uh7HaJhVwCaqcoWvli0-135" edge="1">
          <mxGeometry width="160" relative="1" as="geometry">
            <mxPoint x="1271" y="-1810" as="sourcePoint" />
            <mxPoint x="1410" y="-1733" as="targetPoint" />
          </mxGeometry>
        </mxCell>
        <mxCell id="_Uh7HaJhVwCaqcoWvli0-102" value="&amp;lt;&amp;lt;extend&amp;gt;&amp;gt;" style="html=1;verticalAlign=bottom;labelBackgroundColor=none;endArrow=open;endFill=0;dashed=1;rounded=0;exitX=0;exitY=0.5;exitDx=0;exitDy=0;entryX=0.962;entryY=0.34;entryDx=0;entryDy=0;entryPerimeter=0;" parent="1" source="_Uh7HaJhVwCaqcoWvli0-90" target="_Uh7HaJhVwCaqcoWvli0-139" edge="1">
          <mxGeometry width="160" relative="1" as="geometry">
            <mxPoint x="1281" y="-1800" as="sourcePoint" />
            <mxPoint x="1430" y="-1660" as="targetPoint" />
          </mxGeometry>
        </mxCell>
        <mxCell id="_Uh7HaJhVwCaqcoWvli0-103" value="" style="endArrow=none;startArrow=none;endFill=0;startFill=0;endSize=8;html=1;verticalAlign=bottom;labelBackgroundColor=none;strokeWidth=1;rounded=0;entryX=0;entryY=0.5;entryDx=0;entryDy=0;" parent="1" target="_Uh7HaJhVwCaqcoWvli0-83" edge="1">
          <mxGeometry width="160" relative="1" as="geometry">
            <mxPoint x="910" y="-1750" as="sourcePoint" />
            <mxPoint x="1030" y="-1860" as="targetPoint" />
          </mxGeometry>
        </mxCell>
        <mxCell id="_Uh7HaJhVwCaqcoWvli0-104" value="" style="endArrow=none;startArrow=none;endFill=0;startFill=0;endSize=8;html=1;verticalAlign=bottom;labelBackgroundColor=none;strokeWidth=1;rounded=0;entryX=0;entryY=0.5;entryDx=0;entryDy=0;" parent="1" target="_Uh7HaJhVwCaqcoWvli0-86" edge="1">
          <mxGeometry width="160" relative="1" as="geometry">
            <mxPoint x="910" y="-1740" as="sourcePoint" />
            <mxPoint x="1068" y="-1830" as="targetPoint" />
          </mxGeometry>
        </mxCell>
        <mxCell id="_Uh7HaJhVwCaqcoWvli0-105" value="" style="endArrow=none;startArrow=none;endFill=0;startFill=0;endSize=8;html=1;verticalAlign=bottom;labelBackgroundColor=none;strokeWidth=1;rounded=0;entryX=0;entryY=0.5;entryDx=0;entryDy=0;" parent="1" target="_Uh7HaJhVwCaqcoWvli0-100" edge="1">
          <mxGeometry width="160" relative="1" as="geometry">
            <mxPoint x="910" y="-1730" as="sourcePoint" />
            <mxPoint x="1078" y="-1820" as="targetPoint" />
          </mxGeometry>
        </mxCell>
        <mxCell id="_Uh7HaJhVwCaqcoWvli0-106" value="Unauthorized User" style="shape=umlActor;verticalLabelPosition=bottom;verticalAlign=top;html=1;" parent="1" vertex="1">
          <mxGeometry x="860" y="-1480" width="30" height="60" as="geometry" />
        </mxCell>
        <mxCell id="_Uh7HaJhVwCaqcoWvli0-107" value="Watch Wishlist" style="ellipse;whiteSpace=wrap;html=1;align=center;" parent="1" vertex="1">
          <mxGeometry x="1261" y="-1810" width="100" height="40" as="geometry" />
        </mxCell>
        <mxCell id="_Uh7HaJhVwCaqcoWvli0-108" value="&amp;lt;&amp;lt;extend&amp;gt;&amp;gt;" style="html=1;verticalAlign=bottom;labelBackgroundColor=none;endArrow=open;endFill=0;dashed=1;rounded=0;entryX=1;entryY=1;entryDx=0;entryDy=0;exitX=0;exitY=0.5;exitDx=0;exitDy=0;" parent="1" source="_Uh7HaJhVwCaqcoWvli0-107" target="_Uh7HaJhVwCaqcoWvli0-83" edge="1">
          <mxGeometry width="160" relative="1" as="geometry">
            <mxPoint x="1268" y="-1830" as="sourcePoint" />
            <mxPoint x="1168" y="-1830" as="targetPoint" />
          </mxGeometry>
        </mxCell>
        <mxCell id="_Uh7HaJhVwCaqcoWvli0-110" value="Authorizate" style="ellipse;whiteSpace=wrap;html=1;align=center;" parent="1" vertex="1">
          <mxGeometry x="1055" y="-1540" width="100" height="40" as="geometry" />
        </mxCell>
        <mxCell id="_Uh7HaJhVwCaqcoWvli0-111" value="Register" style="ellipse;whiteSpace=wrap;html=1;align=center;" parent="1" vertex="1">
          <mxGeometry x="1055" y="-1360" width="100" height="40" as="geometry" />
        </mxCell>
        <mxCell id="_Uh7HaJhVwCaqcoWvli0-113" value="" style="endArrow=none;startArrow=none;endFill=0;startFill=0;endSize=8;html=1;verticalAlign=bottom;labelBackgroundColor=none;strokeWidth=1;rounded=0;entryX=0;entryY=0.5;entryDx=0;entryDy=0;" parent="1" target="_Uh7HaJhVwCaqcoWvli0-110" edge="1">
          <mxGeometry width="160" relative="1" as="geometry">
            <mxPoint x="900" y="-1450" as="sourcePoint" />
            <mxPoint x="1048" y="-1503" as="targetPoint" />
          </mxGeometry>
        </mxCell>
        <mxCell id="_Uh7HaJhVwCaqcoWvli0-114" value="" style="endArrow=none;startArrow=none;endFill=0;startFill=0;endSize=8;html=1;verticalAlign=bottom;labelBackgroundColor=none;strokeWidth=1;rounded=0;entryX=0;entryY=0.5;entryDx=0;entryDy=0;" parent="1" target="_Uh7HaJhVwCaqcoWvli0-111" edge="1">
          <mxGeometry width="160" relative="1" as="geometry">
            <mxPoint x="900" y="-1440" as="sourcePoint" />
            <mxPoint x="1068" y="-1460" as="targetPoint" />
          </mxGeometry>
        </mxCell>
        <mxCell id="_Uh7HaJhVwCaqcoWvli0-115" value="Enter Email" style="ellipse;whiteSpace=wrap;html=1;align=center;" parent="1" vertex="1">
          <mxGeometry x="1263" y="-1400" width="100" height="40" as="geometry" />
        </mxCell>
        <mxCell id="_Uh7HaJhVwCaqcoWvli0-116" value="Enter Password" style="ellipse;whiteSpace=wrap;html=1;align=center;" parent="1" vertex="1">
          <mxGeometry x="1263" y="-1350" width="100" height="40" as="geometry" />
        </mxCell>
        <mxCell id="_Uh7HaJhVwCaqcoWvli0-117" value="Enter NickName" style="ellipse;whiteSpace=wrap;html=1;align=center;" parent="1" vertex="1">
          <mxGeometry x="1263" y="-1300" width="100" height="40" as="geometry" />
        </mxCell>
        <mxCell id="_Uh7HaJhVwCaqcoWvli0-119" value="&amp;lt;&amp;lt;Include&amp;gt;&amp;gt;" style="html=1;verticalAlign=bottom;labelBackgroundColor=none;endArrow=open;endFill=0;dashed=1;rounded=0;entryX=0;entryY=0.5;entryDx=0;entryDy=0;exitX=1;exitY=1;exitDx=0;exitDy=0;" parent="1" source="_Uh7HaJhVwCaqcoWvli0-111" target="_Uh7HaJhVwCaqcoWvli0-117" edge="1">
          <mxGeometry width="160" relative="1" as="geometry">
            <mxPoint x="1207" y="-1250" as="sourcePoint" />
            <mxPoint x="1104" y="-1250" as="targetPoint" />
          </mxGeometry>
        </mxCell>
        <mxCell id="_Uh7HaJhVwCaqcoWvli0-120" value="&amp;lt;&amp;lt;Include&amp;gt;&amp;gt;" style="html=1;verticalAlign=bottom;labelBackgroundColor=none;endArrow=open;endFill=0;dashed=1;rounded=0;entryX=0;entryY=0.5;entryDx=0;entryDy=0;exitX=1;exitY=0;exitDx=0;exitDy=0;" parent="1" source="_Uh7HaJhVwCaqcoWvli0-111" target="_Uh7HaJhVwCaqcoWvli0-115" edge="1">
          <mxGeometry width="160" relative="1" as="geometry">
            <mxPoint x="1150" y="-1316" as="sourcePoint" />
            <mxPoint x="1273" y="-1270" as="targetPoint" />
          </mxGeometry>
        </mxCell>
        <mxCell id="_Uh7HaJhVwCaqcoWvli0-121" value="&amp;lt;&amp;lt;Include&amp;gt;&amp;gt;" style="html=1;verticalAlign=bottom;labelBackgroundColor=none;endArrow=open;endFill=0;dashed=1;rounded=0;entryX=0;entryY=0.5;entryDx=0;entryDy=0;exitX=1;exitY=0.5;exitDx=0;exitDy=0;" parent="1" source="_Uh7HaJhVwCaqcoWvli0-111" target="_Uh7HaJhVwCaqcoWvli0-116" edge="1">
          <mxGeometry width="160" relative="1" as="geometry">
            <mxPoint x="1160" y="-1306" as="sourcePoint" />
            <mxPoint x="1283" y="-1260" as="targetPoint" />
          </mxGeometry>
        </mxCell>
        <mxCell id="_Uh7HaJhVwCaqcoWvli0-123" value="Enter Email" style="ellipse;whiteSpace=wrap;html=1;align=center;" parent="1" vertex="1">
          <mxGeometry x="1470" y="-1600" width="100" height="40" as="geometry" />
        </mxCell>
        <mxCell id="_Uh7HaJhVwCaqcoWvli0-124" value="Enter Password" style="ellipse;whiteSpace=wrap;html=1;align=center;" parent="1" vertex="1">
          <mxGeometry x="1470" y="-1550" width="100" height="40" as="geometry" />
        </mxCell>
        <mxCell id="_Uh7HaJhVwCaqcoWvli0-127" value="Authorize using another Services&amp;nbsp;" style="ellipse;whiteSpace=wrap;html=1;align=center;" parent="1" vertex="1">
          <mxGeometry x="1250" y="-1490" width="108" height="40" as="geometry" />
        </mxCell>
        <mxCell id="_Uh7HaJhVwCaqcoWvli0-128" value="&amp;lt;&amp;lt;extend&amp;gt;&amp;gt;" style="html=1;verticalAlign=bottom;labelBackgroundColor=none;endArrow=open;endFill=0;dashed=1;rounded=0;exitX=0;exitY=0.5;exitDx=0;exitDy=0;entryX=0.997;entryY=0.694;entryDx=0;entryDy=0;entryPerimeter=0;" parent="1" source="_Uh7HaJhVwCaqcoWvli0-127" target="_Uh7HaJhVwCaqcoWvli0-110" edge="1">
          <mxGeometry x="-0.396" y="3" width="160" relative="1" as="geometry">
            <mxPoint x="1271" y="-1640" as="sourcePoint" />
            <mxPoint x="1140" y="-1506" as="targetPoint" />
            <mxPoint as="offset" />
          </mxGeometry>
        </mxCell>
        <mxCell id="_Uh7HaJhVwCaqcoWvli0-129" value="Enter Email" style="ellipse;whiteSpace=wrap;html=1;align=center;" parent="1" vertex="1">
          <mxGeometry x="1470" y="-1500" width="100" height="40" as="geometry" />
        </mxCell>
        <mxCell id="_Uh7HaJhVwCaqcoWvli0-130" value="Select Service" style="ellipse;whiteSpace=wrap;html=1;align=center;" parent="1" vertex="1">
          <mxGeometry x="1470" y="-1450" width="100" height="40" as="geometry" />
        </mxCell>
        <mxCell id="_Uh7HaJhVwCaqcoWvli0-131" value="Enter Password" style="ellipse;whiteSpace=wrap;html=1;align=center;" parent="1" vertex="1">
          <mxGeometry x="1470" y="-1400" width="100" height="40" as="geometry" />
        </mxCell>
        <mxCell id="_Uh7HaJhVwCaqcoWvli0-132" value="&amp;lt;&amp;lt;Include&amp;gt;&amp;gt;" style="html=1;verticalAlign=bottom;labelBackgroundColor=none;endArrow=open;endFill=0;dashed=1;rounded=0;entryX=0;entryY=0.5;entryDx=0;entryDy=0;exitX=0.975;exitY=0.341;exitDx=0;exitDy=0;exitPerimeter=0;" parent="1" source="_Uh7HaJhVwCaqcoWvli0-127" target="_Uh7HaJhVwCaqcoWvli0-129" edge="1">
          <mxGeometry width="160" relative="1" as="geometry">
            <mxPoint x="1363" y="-1575" as="sourcePoint" />
            <mxPoint x="1466" y="-1585" as="targetPoint" />
          </mxGeometry>
        </mxCell>
        <mxCell id="_Uh7HaJhVwCaqcoWvli0-133" value="&amp;lt;&amp;lt;Include&amp;gt;&amp;gt;" style="html=1;verticalAlign=bottom;labelBackgroundColor=none;endArrow=open;endFill=0;dashed=1;rounded=0;entryX=0;entryY=0.5;entryDx=0;entryDy=0;exitX=0.969;exitY=0.651;exitDx=0;exitDy=0;exitPerimeter=0;" parent="1" source="_Uh7HaJhVwCaqcoWvli0-127" target="_Uh7HaJhVwCaqcoWvli0-130" edge="1">
          <mxGeometry width="160" relative="1" as="geometry">
            <mxPoint x="1400" y="-1470" as="sourcePoint" />
            <mxPoint x="1440" y="-1490" as="targetPoint" />
          </mxGeometry>
        </mxCell>
        <mxCell id="_Uh7HaJhVwCaqcoWvli0-134" value="&amp;lt;&amp;lt;Include&amp;gt;&amp;gt;" style="html=1;verticalAlign=bottom;labelBackgroundColor=none;endArrow=open;endFill=0;dashed=1;rounded=0;entryX=0;entryY=0.5;entryDx=0;entryDy=0;exitX=1;exitY=1;exitDx=0;exitDy=0;" parent="1" source="_Uh7HaJhVwCaqcoWvli0-127" target="_Uh7HaJhVwCaqcoWvli0-131" edge="1">
          <mxGeometry width="160" relative="1" as="geometry">
            <mxPoint x="1362" y="-1464" as="sourcePoint" />
            <mxPoint x="1450" y="-1480" as="targetPoint" />
          </mxGeometry>
        </mxCell>
        <mxCell id="_Uh7HaJhVwCaqcoWvli0-135" value="Select Game" style="ellipse;whiteSpace=wrap;html=1;align=center;" parent="1" vertex="1">
          <mxGeometry x="1261" y="-1753" width="100" height="40" as="geometry" />
        </mxCell>
        <mxCell id="_Uh7HaJhVwCaqcoWvli0-136" value="&amp;lt;&amp;lt;extend&amp;gt;&amp;gt;" style="html=1;verticalAlign=bottom;labelBackgroundColor=none;endArrow=open;endFill=0;dashed=1;rounded=0;exitX=0;exitY=0.5;exitDx=0;exitDy=0;entryX=1;entryY=0.5;entryDx=0;entryDy=0;" parent="1" source="_Uh7HaJhVwCaqcoWvli0-135" target="_Uh7HaJhVwCaqcoWvli0-86" edge="1">
          <mxGeometry width="160" relative="1" as="geometry">
            <mxPoint x="1270" y="-1700" as="sourcePoint" />
            <mxPoint x="1161" y="-1700" as="targetPoint" />
          </mxGeometry>
        </mxCell>
        <mxCell id="_Uh7HaJhVwCaqcoWvli0-137" value="Watch Game Info" style="ellipse;whiteSpace=wrap;html=1;align=center;" parent="1" vertex="1">
          <mxGeometry x="1470" y="-1753" width="100" height="40" as="geometry" />
        </mxCell>
        <mxCell id="_Uh7HaJhVwCaqcoWvli0-138" value="&amp;lt;&amp;lt;extend&amp;gt;&amp;gt;" style="html=1;verticalAlign=bottom;labelBackgroundColor=none;endArrow=open;endFill=0;dashed=1;rounded=0;exitX=0;exitY=0.5;exitDx=0;exitDy=0;entryX=0.976;entryY=0.671;entryDx=0;entryDy=0;entryPerimeter=0;" parent="1" source="_Uh7HaJhVwCaqcoWvli0-137" target="_Uh7HaJhVwCaqcoWvli0-135" edge="1">
          <mxGeometry width="160" relative="1" as="geometry">
            <mxPoint x="1480" y="-1753" as="sourcePoint" />
            <mxPoint x="1356" y="-1737" as="targetPoint" />
          </mxGeometry>
        </mxCell>
        <mxCell id="_Uh7HaJhVwCaqcoWvli0-139" value="Select Player" style="ellipse;whiteSpace=wrap;html=1;align=center;" parent="1" vertex="1">
          <mxGeometry x="1258" y="-1670" width="100" height="40" as="geometry" />
        </mxCell>
        <mxCell id="_Uh7HaJhVwCaqcoWvli0-140" value="&amp;lt;&amp;lt;extend&amp;gt;&amp;gt;" style="html=1;verticalAlign=bottom;labelBackgroundColor=none;endArrow=open;endFill=0;dashed=1;rounded=0;exitX=0;exitY=0.5;exitDx=0;exitDy=0;entryX=1;entryY=0.5;entryDx=0;entryDy=0;" parent="1" source="_Uh7HaJhVwCaqcoWvli0-139" target="_Uh7HaJhVwCaqcoWvli0-100" edge="1">
          <mxGeometry width="160" relative="1" as="geometry">
            <mxPoint x="1232" y="-1610" as="sourcePoint" />
            <mxPoint x="1120" y="-1600" as="targetPoint" />
          </mxGeometry>
        </mxCell>
        <mxCell id="_Uh7HaJhVwCaqcoWvli0-141" value="Watch Player Info" style="ellipse;whiteSpace=wrap;html=1;align=center;" parent="1" vertex="1">
          <mxGeometry x="1470" y="-1650" width="100" height="40" as="geometry" />
        </mxCell>
        <mxCell id="_Uh7HaJhVwCaqcoWvli0-142" value="&amp;lt;&amp;lt;extend&amp;gt;&amp;gt;" style="html=1;verticalAlign=bottom;labelBackgroundColor=none;endArrow=open;endFill=0;dashed=1;rounded=0;exitX=0;exitY=0.5;exitDx=0;exitDy=0;entryX=0.99;entryY=0.599;entryDx=0;entryDy=0;entryPerimeter=0;" parent="1" source="_Uh7HaJhVwCaqcoWvli0-141" target="_Uh7HaJhVwCaqcoWvli0-139" edge="1">
          <mxGeometry x="0.0053" width="160" relative="1" as="geometry">
            <mxPoint x="1480" y="-1650" as="sourcePoint" />
            <mxPoint x="1368" y="-1640" as="targetPoint" />
            <mxPoint as="offset" />
          </mxGeometry>
        </mxCell>
        <mxCell id="UnRavw6CulMkR-eXigLF-1" value="Authorize using Email&amp;nbsp;" style="ellipse;whiteSpace=wrap;html=1;align=center;" parent="1" vertex="1">
          <mxGeometry x="1253" y="-1560" width="108" height="40" as="geometry" />
        </mxCell>
        <mxCell id="UnRavw6CulMkR-eXigLF-2" value="&amp;lt;&amp;lt;extend&amp;gt;&amp;gt;" style="html=1;verticalAlign=bottom;labelBackgroundColor=none;endArrow=open;endFill=0;dashed=1;rounded=0;entryX=1.003;entryY=0.384;entryDx=0;entryDy=0;exitX=0;exitY=0.5;exitDx=0;exitDy=0;entryPerimeter=0;" parent="1" source="UnRavw6CulMkR-eXigLF-1" target="_Uh7HaJhVwCaqcoWvli0-110" edge="1">
          <mxGeometry width="160" relative="1" as="geometry">
            <mxPoint x="1260" y="-1460" as="sourcePoint" />
            <mxPoint x="1150" y="-1496" as="targetPoint" />
          </mxGeometry>
        </mxCell>
        <mxCell id="UnRavw6CulMkR-eXigLF-3" value="&amp;lt;&amp;lt;Include&amp;gt;&amp;gt;" style="html=1;verticalAlign=bottom;labelBackgroundColor=none;endArrow=open;endFill=0;dashed=1;rounded=0;entryX=0;entryY=0.5;entryDx=0;entryDy=0;exitX=0.967;exitY=0.28;exitDx=0;exitDy=0;exitPerimeter=0;" parent="1" source="UnRavw6CulMkR-eXigLF-1" target="_Uh7HaJhVwCaqcoWvli0-123" edge="1">
          <mxGeometry width="160" relative="1" as="geometry">
            <mxPoint x="1330" y="-1582" as="sourcePoint" />
            <mxPoint x="1458" y="-1578" as="targetPoint" />
          </mxGeometry>
        </mxCell>
        <mxCell id="UnRavw6CulMkR-eXigLF-4" value="&amp;lt;&amp;lt;Include&amp;gt;&amp;gt;" style="html=1;verticalAlign=bottom;labelBackgroundColor=none;endArrow=open;endFill=0;dashed=1;rounded=0;entryX=0;entryY=0.5;entryDx=0;entryDy=0;exitX=1.011;exitY=0.642;exitDx=0;exitDy=0;exitPerimeter=0;" parent="1" source="UnRavw6CulMkR-eXigLF-1" target="_Uh7HaJhVwCaqcoWvli0-124" edge="1">
          <mxGeometry width="160" relative="1" as="geometry">
            <mxPoint x="1352" y="-1474" as="sourcePoint" />
            <mxPoint x="1480" y="-1470" as="targetPoint" />
          </mxGeometry>
        </mxCell>
      </root>
    </mxGraphModel>
  </diagram>
  <diagram id="wGcYSvG7Jr3udOWiPzbX" name="UML DFD">
    <mxGraphModel dx="1438" dy="2152" grid="1" gridSize="10" guides="1" tooltips="1" connect="1" arrows="1" fold="1" page="1" pageScale="1" pageWidth="827" pageHeight="1169" math="0" shadow="0">
      <root>
        <mxCell id="0" />
        <mxCell id="1" parent="0" />
        <mxCell id="KXJecW-xRKv5K2LcAwL7-31" value="USER" style="html=1;dashed=0;whitespace=wrap;" parent="1" vertex="1">
          <mxGeometry x="410" y="-480" width="157" height="220" as="geometry" />
        </mxCell>
        <mxCell id="KXJecW-xRKv5K2LcAwL7-32" style="edgeStyle=orthogonalEdgeStyle;rounded=0;orthogonalLoop=1;jettySize=auto;html=1;exitX=0;exitY=0.868;exitDx=0;exitDy=0;entryX=1.002;entryY=0.887;entryDx=0;entryDy=0;startArrow=none;startFill=0;endArrow=block;endFill=1;exitPerimeter=0;entryPerimeter=0;" parent="1" source="KXJecW-xRKv5K2LcAwL7-35" target="KXJecW-xRKv5K2LcAwL7-31" edge="1">
          <mxGeometry relative="1" as="geometry">
            <Array as="points" />
          </mxGeometry>
        </mxCell>
        <mxCell id="KXJecW-xRKv5K2LcAwL7-33" value="Authorization Status" style="edgeLabel;html=1;align=center;verticalAlign=middle;resizable=0;points=[];" parent="KXJecW-xRKv5K2LcAwL7-32" vertex="1" connectable="0">
          <mxGeometry x="0.0954" y="-2" relative="1" as="geometry">
            <mxPoint x="17" as="offset" />
          </mxGeometry>
        </mxCell>
        <mxCell id="KXJecW-xRKv5K2LcAwL7-34" value="0" style="swimlane;childLayout=stackLayout;horizontal=1;startSize=30;horizontalStack=0;rounded=1;fontSize=14;fontStyle=0;strokeWidth=1;resizeParent=0;resizeLast=1;shadow=0;dashed=0;align=center;fillColor=#FFFFFF;" parent="1" vertex="1">
          <mxGeometry x="800" y="-480" width="170" height="220" as="geometry" />
        </mxCell>
        <mxCell id="KXJecW-xRKv5K2LcAwL7-35" value="GSTAT" style="align=center;strokeColor=none;fillColor=none;spacingLeft=4;fontSize=12;verticalAlign=middle;resizable=0;rotatable=0;part=1;" parent="KXJecW-xRKv5K2LcAwL7-34" vertex="1">
          <mxGeometry y="30" width="170" height="190" as="geometry" />
        </mxCell>
        <mxCell id="KXJecW-xRKv5K2LcAwL7-38" style="edgeStyle=orthogonalEdgeStyle;rounded=0;orthogonalLoop=1;jettySize=auto;html=1;exitX=1.006;exitY=0.123;exitDx=0;exitDy=0;entryX=0.003;entryY=0.112;entryDx=0;entryDy=0;entryPerimeter=0;exitPerimeter=0;" parent="1" source="KXJecW-xRKv5K2LcAwL7-31" target="KXJecW-xRKv5K2LcAwL7-34" edge="1">
          <mxGeometry relative="1" as="geometry" />
        </mxCell>
        <mxCell id="KXJecW-xRKv5K2LcAwL7-39" value="Game Information Request" style="edgeLabel;html=1;align=center;verticalAlign=middle;resizable=0;points=[];" parent="KXJecW-xRKv5K2LcAwL7-38" vertex="1" connectable="0">
          <mxGeometry x="0.1239" y="1" relative="1" as="geometry">
            <mxPoint x="-7" as="offset" />
          </mxGeometry>
        </mxCell>
        <mxCell id="KXJecW-xRKv5K2LcAwL7-40" value="Friends Information Response" style="edgeStyle=orthogonalEdgeStyle;rounded=0;orthogonalLoop=1;jettySize=auto;html=1;exitX=0;exitY=0.233;exitDx=0;exitDy=0;entryX=1;entryY=0.334;entryDx=0;entryDy=0;entryPerimeter=0;exitPerimeter=0;" parent="1" source="KXJecW-xRKv5K2LcAwL7-35" target="KXJecW-xRKv5K2LcAwL7-31" edge="1">
          <mxGeometry x="-0.0939" relative="1" as="geometry">
            <mxPoint as="offset" />
          </mxGeometry>
        </mxCell>
        <mxCell id="KXJecW-xRKv5K2LcAwL7-41" style="edgeStyle=orthogonalEdgeStyle;rounded=0;orthogonalLoop=1;jettySize=auto;html=1;exitX=-0.001;exitY=0.043;exitDx=0;exitDy=0;exitPerimeter=0;entryX=1;entryY=0.172;entryDx=0;entryDy=0;entryPerimeter=0;" parent="1" source="KXJecW-xRKv5K2LcAwL7-35" target="KXJecW-xRKv5K2LcAwL7-31" edge="1">
          <mxGeometry relative="1" as="geometry">
            <mxPoint x="500" y="-442" as="targetPoint" />
          </mxGeometry>
        </mxCell>
        <mxCell id="KXJecW-xRKv5K2LcAwL7-42" value="Game Information Response&amp;nbsp;" style="edgeLabel;html=1;align=center;verticalAlign=middle;resizable=0;points=[];" parent="KXJecW-xRKv5K2LcAwL7-41" vertex="1" connectable="0">
          <mxGeometry x="0.1081" y="-2" relative="1" as="geometry">
            <mxPoint x="19" as="offset" />
          </mxGeometry>
        </mxCell>
        <mxCell id="KXJecW-xRKv5K2LcAwL7-43" style="edgeStyle=orthogonalEdgeStyle;rounded=0;orthogonalLoop=1;jettySize=auto;html=1;entryX=0.003;entryY=0.16;entryDx=0;entryDy=0;entryPerimeter=0;exitX=1;exitY=0.271;exitDx=0;exitDy=0;exitPerimeter=0;" parent="1" source="KXJecW-xRKv5K2LcAwL7-31" target="KXJecW-xRKv5K2LcAwL7-35" edge="1">
          <mxGeometry relative="1" as="geometry">
            <mxPoint x="497" y="-404" as="sourcePoint" />
            <Array as="points" />
          </mxGeometry>
        </mxCell>
        <mxCell id="KXJecW-xRKv5K2LcAwL7-44" value="Friends Information Request" style="edgeLabel;html=1;align=center;verticalAlign=middle;resizable=0;points=[];" parent="KXJecW-xRKv5K2LcAwL7-43" vertex="1" connectable="0">
          <mxGeometry x="0.0956" relative="1" as="geometry">
            <mxPoint as="offset" />
          </mxGeometry>
        </mxCell>
        <mxCell id="KXJecW-xRKv5K2LcAwL7-47" value="PSN/XBOX/STEAM/NINTENDO" style="html=1;dashed=0;whitespace=wrap;" parent="1" vertex="1">
          <mxGeometry x="1180" y="-470" width="210" height="200" as="geometry" />
        </mxCell>
        <mxCell id="KXJecW-xRKv5K2LcAwL7-48" style="edgeStyle=orthogonalEdgeStyle;rounded=0;orthogonalLoop=1;jettySize=auto;html=1;exitX=0.999;exitY=0.124;exitDx=0;exitDy=0;entryX=0.001;entryY=0.218;entryDx=0;entryDy=0;entryPerimeter=0;exitPerimeter=0;startArrow=none;startFill=0;endArrow=block;endFill=1;" parent="1" source="KXJecW-xRKv5K2LcAwL7-35" target="KXJecW-xRKv5K2LcAwL7-47" edge="1">
          <mxGeometry relative="1" as="geometry">
            <Array as="points" />
          </mxGeometry>
        </mxCell>
        <mxCell id="KXJecW-xRKv5K2LcAwL7-49" value="Games List Request" style="edgeLabel;html=1;align=center;verticalAlign=middle;resizable=0;points=[];" parent="KXJecW-xRKv5K2LcAwL7-48" vertex="1" connectable="0">
          <mxGeometry x="-0.2158" y="1" relative="1" as="geometry">
            <mxPoint x="28" y="1" as="offset" />
          </mxGeometry>
        </mxCell>
        <mxCell id="KXJecW-xRKv5K2LcAwL7-50" style="edgeStyle=orthogonalEdgeStyle;rounded=0;orthogonalLoop=1;jettySize=auto;html=1;entryX=1;entryY=0.228;entryDx=0;entryDy=0;entryPerimeter=0;exitX=0;exitY=0.32;exitDx=0;exitDy=0;exitPerimeter=0;" parent="1" source="KXJecW-xRKv5K2LcAwL7-47" target="KXJecW-xRKv5K2LcAwL7-35" edge="1">
          <mxGeometry relative="1" as="geometry">
            <mxPoint x="1580" y="-380" as="sourcePoint" />
            <Array as="points" />
          </mxGeometry>
        </mxCell>
        <mxCell id="KXJecW-xRKv5K2LcAwL7-51" value="Games List Response" style="edgeLabel;html=1;align=center;verticalAlign=middle;resizable=0;points=[];" parent="KXJecW-xRKv5K2LcAwL7-50" vertex="1" connectable="0">
          <mxGeometry x="0.1745" y="2" relative="1" as="geometry">
            <mxPoint x="27" y="-2" as="offset" />
          </mxGeometry>
        </mxCell>
        <mxCell id="KXJecW-xRKv5K2LcAwL7-52" style="edgeStyle=orthogonalEdgeStyle;rounded=0;orthogonalLoop=1;jettySize=auto;html=1;exitX=1.006;exitY=0.362;exitDx=0;exitDy=0;exitPerimeter=0;entryX=-0.008;entryY=0.451;entryDx=0;entryDy=0;entryPerimeter=0;" parent="1" source="KXJecW-xRKv5K2LcAwL7-35" target="KXJecW-xRKv5K2LcAwL7-47" edge="1">
          <mxGeometry relative="1" as="geometry">
            <mxPoint x="1226" y="-380.33" as="sourcePoint" />
            <mxPoint x="1580" y="-380" as="targetPoint" />
            <Array as="points" />
          </mxGeometry>
        </mxCell>
        <mxCell id="KXJecW-xRKv5K2LcAwL7-53" value="Achievements List Request" style="edgeLabel;html=1;align=center;verticalAlign=middle;resizable=0;points=[];" parent="KXJecW-xRKv5K2LcAwL7-52" vertex="1" connectable="0">
          <mxGeometry x="-0.2158" y="1" relative="1" as="geometry">
            <mxPoint x="35" y="1" as="offset" />
          </mxGeometry>
        </mxCell>
        <mxCell id="KXJecW-xRKv5K2LcAwL7-54" style="edgeStyle=orthogonalEdgeStyle;rounded=0;orthogonalLoop=1;jettySize=auto;html=1;entryX=1;entryY=0.474;entryDx=0;entryDy=0;entryPerimeter=0;exitX=0.001;exitY=0.551;exitDx=0;exitDy=0;exitPerimeter=0;" parent="1" source="KXJecW-xRKv5K2LcAwL7-47" target="KXJecW-xRKv5K2LcAwL7-35" edge="1">
          <mxGeometry relative="1" as="geometry">
            <mxPoint x="1580" y="-359" as="sourcePoint" />
            <mxPoint x="1226" y="-360" as="targetPoint" />
            <Array as="points" />
          </mxGeometry>
        </mxCell>
        <mxCell id="KXJecW-xRKv5K2LcAwL7-55" value="Achievements List Response" style="edgeLabel;html=1;align=center;verticalAlign=middle;resizable=0;points=[];" parent="KXJecW-xRKv5K2LcAwL7-54" vertex="1" connectable="0">
          <mxGeometry x="0.1745" y="2" relative="1" as="geometry">
            <mxPoint x="27" y="-2" as="offset" />
          </mxGeometry>
        </mxCell>
        <mxCell id="KXJecW-xRKv5K2LcAwL7-64" style="edgeStyle=orthogonalEdgeStyle;rounded=0;orthogonalLoop=1;jettySize=auto;html=1;exitX=-0.002;exitY=0.807;exitDx=0;exitDy=0;entryX=1;entryY=0.829;entryDx=0;entryDy=0;startArrow=classic;startFill=1;endArrow=none;endFill=0;exitPerimeter=0;entryPerimeter=0;" parent="1" source="KXJecW-xRKv5K2LcAwL7-35" target="KXJecW-xRKv5K2LcAwL7-31" edge="1">
          <mxGeometry relative="1" as="geometry">
            <Array as="points">
              <mxPoint x="760" y="-297" />
              <mxPoint x="530" y="-297" />
            </Array>
            <mxPoint x="1137" y="-470" as="sourcePoint" />
            <mxPoint x="270" y="-472" as="targetPoint" />
          </mxGeometry>
        </mxCell>
        <mxCell id="KXJecW-xRKv5K2LcAwL7-65" value="Authorization Info" style="edgeLabel;html=1;align=center;verticalAlign=middle;resizable=0;points=[];" parent="KXJecW-xRKv5K2LcAwL7-64" vertex="1" connectable="0">
          <mxGeometry x="0.0954" y="-2" relative="1" as="geometry">
            <mxPoint x="18" as="offset" />
          </mxGeometry>
        </mxCell>
        <mxCell id="jUymLvn3LE_0lTtVYQgT-1" value="Achievement Information Response" style="edgeStyle=orthogonalEdgeStyle;rounded=0;orthogonalLoop=1;jettySize=auto;html=1;exitX=-0.004;exitY=0.411;exitDx=0;exitDy=0;exitPerimeter=0;entryX=1.005;entryY=0.489;entryDx=0;entryDy=0;entryPerimeter=0;" parent="1" source="KXJecW-xRKv5K2LcAwL7-35" target="KXJecW-xRKv5K2LcAwL7-31" edge="1">
          <mxGeometry x="-0.0938" relative="1" as="geometry">
            <mxPoint x="953" y="-270" as="sourcePoint" />
            <mxPoint x="500" y="-341" as="targetPoint" />
            <mxPoint as="offset" />
          </mxGeometry>
        </mxCell>
        <mxCell id="jUymLvn3LE_0lTtVYQgT-3" style="edgeStyle=orthogonalEdgeStyle;rounded=0;orthogonalLoop=1;jettySize=auto;html=1;exitX=0.999;exitY=0.431;exitDx=0;exitDy=0;entryX=-0.001;entryY=0.337;entryDx=0;entryDy=0;exitPerimeter=0;entryPerimeter=0;" parent="1" source="KXJecW-xRKv5K2LcAwL7-31" target="KXJecW-xRKv5K2LcAwL7-35" edge="1">
          <mxGeometry relative="1" as="geometry">
            <mxPoint x="507" y="-394" as="sourcePoint" />
            <mxPoint x="970" y="-392" as="targetPoint" />
          </mxGeometry>
        </mxCell>
        <mxCell id="jUymLvn3LE_0lTtVYQgT-4" value="Achievement Information Request" style="edgeLabel;html=1;align=center;verticalAlign=middle;resizable=0;points=[];" parent="jUymLvn3LE_0lTtVYQgT-3" vertex="1" connectable="0">
          <mxGeometry x="0.0956" relative="1" as="geometry">
            <mxPoint as="offset" />
          </mxGeometry>
        </mxCell>
        <mxCell id="jUymLvn3LE_0lTtVYQgT-5" style="edgeStyle=orthogonalEdgeStyle;rounded=0;orthogonalLoop=1;jettySize=auto;html=1;exitX=1;exitY=0.615;exitDx=0;exitDy=0;exitPerimeter=0;entryX=0;entryY=0.555;entryDx=0;entryDy=0;entryPerimeter=0;" parent="1" source="KXJecW-xRKv5K2LcAwL7-31" target="KXJecW-xRKv5K2LcAwL7-35" edge="1">
          <mxGeometry relative="1" as="geometry">
            <mxPoint x="500" y="-311" as="sourcePoint" />
            <mxPoint x="800" y="-349" as="targetPoint" />
          </mxGeometry>
        </mxCell>
        <mxCell id="jUymLvn3LE_0lTtVYQgT-8" value="User&#39;s Data Info" style="edgeLabel;html=1;align=center;verticalAlign=middle;resizable=0;points=[];" parent="jUymLvn3LE_0lTtVYQgT-5" vertex="1" connectable="0">
          <mxGeometry x="-0.0147" relative="1" as="geometry">
            <mxPoint as="offset" />
          </mxGeometry>
        </mxCell>
        <mxCell id="jUymLvn3LE_0lTtVYQgT-9" value="User&#39;s Data Status" style="edgeStyle=orthogonalEdgeStyle;rounded=0;orthogonalLoop=1;jettySize=auto;html=1;exitX=-0.002;exitY=0.623;exitDx=0;exitDy=0;entryX=1.006;entryY=0.674;entryDx=0;entryDy=0;entryPerimeter=0;exitPerimeter=0;" parent="1" source="KXJecW-xRKv5K2LcAwL7-35" target="KXJecW-xRKv5K2LcAwL7-31" edge="1">
          <mxGeometry x="-0.0108" relative="1" as="geometry">
            <mxPoint x="800" y="-300" as="sourcePoint" />
            <mxPoint x="497" y="-299" as="targetPoint" />
            <mxPoint as="offset" />
          </mxGeometry>
        </mxCell>
        <mxCell id="jUymLvn3LE_0lTtVYQgT-10" value="2" style="swimlane;childLayout=stackLayout;horizontal=1;startSize=30;horizontalStack=0;rounded=1;fontSize=14;fontStyle=0;strokeWidth=1;resizeParent=0;resizeLast=1;shadow=0;dashed=0;align=center;fillColor=#FFFFFF;" parent="1" vertex="1">
          <mxGeometry x="800" y="110" width="170" height="90" as="geometry" />
        </mxCell>
        <mxCell id="jUymLvn3LE_0lTtVYQgT-11" value="Manage Account" style="align=center;strokeColor=none;fillColor=none;spacingLeft=4;fontSize=12;verticalAlign=middle;resizable=0;rotatable=0;part=1;" parent="jUymLvn3LE_0lTtVYQgT-10" vertex="1">
          <mxGeometry y="30" width="170" height="60" as="geometry" />
        </mxCell>
        <mxCell id="jUymLvn3LE_0lTtVYQgT-17" value="3" style="swimlane;childLayout=stackLayout;horizontal=1;startSize=30;horizontalStack=0;rounded=1;fontSize=14;fontStyle=0;strokeWidth=1;resizeParent=0;resizeLast=1;shadow=0;dashed=0;align=center;fillColor=#FFFFFF;" parent="1" vertex="1">
          <mxGeometry x="800" y="220" width="170" height="90" as="geometry" />
        </mxCell>
        <mxCell id="jUymLvn3LE_0lTtVYQgT-18" value="Manage Friends" style="align=center;strokeColor=none;fillColor=none;spacingLeft=4;fontSize=12;verticalAlign=middle;resizable=0;rotatable=0;part=1;" parent="jUymLvn3LE_0lTtVYQgT-17" vertex="1">
          <mxGeometry y="30" width="170" height="60" as="geometry" />
        </mxCell>
        <mxCell id="kr3vqrhF4_ss1cn2y3dx-99" style="edgeStyle=orthogonalEdgeStyle;rounded=0;orthogonalLoop=1;jettySize=auto;html=1;exitX=0.765;exitY=0;exitDx=0;exitDy=0;entryX=0;entryY=0.25;entryDx=0;entryDy=0;exitPerimeter=0;" parent="1" source="kr3vqrhF4_ss1cn2y3dx-1" target="jUymLvn3LE_0lTtVYQgT-11" edge="1">
          <mxGeometry relative="1" as="geometry">
            <Array as="points">
              <mxPoint x="510" y="155" />
            </Array>
          </mxGeometry>
        </mxCell>
        <mxCell id="UcqmzZQ5sdaNd45mamIq-3" value="User Data" style="edgeLabel;html=1;align=center;verticalAlign=middle;resizable=0;points=[];" parent="kr3vqrhF4_ss1cn2y3dx-99" vertex="1" connectable="0">
          <mxGeometry x="0.0864" y="1" relative="1" as="geometry">
            <mxPoint as="offset" />
          </mxGeometry>
        </mxCell>
        <mxCell id="V6BsgPTpawuMbuSaY3A8-1" style="edgeStyle=orthogonalEdgeStyle;rounded=0;orthogonalLoop=1;jettySize=auto;html=1;exitX=1;exitY=0.1;exitDx=0;exitDy=0;entryX=0;entryY=0.25;entryDx=0;entryDy=0;exitPerimeter=0;" parent="1" source="kr3vqrhF4_ss1cn2y3dx-1" target="jUymLvn3LE_0lTtVYQgT-17" edge="1">
          <mxGeometry relative="1" as="geometry">
            <Array as="points">
              <mxPoint x="547" y="290" />
              <mxPoint x="570" y="290" />
              <mxPoint x="570" y="243" />
            </Array>
          </mxGeometry>
        </mxCell>
        <mxCell id="UcqmzZQ5sdaNd45mamIq-19" value="Friends Request&amp;nbsp;" style="edgeLabel;html=1;align=center;verticalAlign=middle;resizable=0;points=[];" parent="V6BsgPTpawuMbuSaY3A8-1" vertex="1" connectable="0">
          <mxGeometry x="-0.1973" y="-3" relative="1" as="geometry">
            <mxPoint x="53" y="-5" as="offset" />
          </mxGeometry>
        </mxCell>
        <mxCell id="V6BsgPTpawuMbuSaY3A8-3" style="edgeStyle=orthogonalEdgeStyle;rounded=0;orthogonalLoop=1;jettySize=auto;html=1;exitX=1.006;exitY=0.679;exitDx=0;exitDy=0;entryX=0;entryY=0.25;entryDx=0;entryDy=0;exitPerimeter=0;" parent="1" source="kr3vqrhF4_ss1cn2y3dx-1" target="WWvZSqHIx8XrDJNFYY1C-5" edge="1">
          <mxGeometry relative="1" as="geometry">
            <mxPoint x="440.15999999999997" y="610" as="sourcePoint" />
            <mxPoint x="693.16" y="610" as="targetPoint" />
            <Array as="points">
              <mxPoint x="620" y="419" />
              <mxPoint x="620" y="485" />
            </Array>
          </mxGeometry>
        </mxCell>
        <mxCell id="UcqmzZQ5sdaNd45mamIq-5" value="Games Request" style="edgeLabel;html=1;align=center;verticalAlign=middle;resizable=0;points=[];" parent="V6BsgPTpawuMbuSaY3A8-3" vertex="1" connectable="0">
          <mxGeometry x="-0.1937" y="3" relative="1" as="geometry">
            <mxPoint x="70" y="3" as="offset" />
          </mxGeometry>
        </mxCell>
        <mxCell id="V6BsgPTpawuMbuSaY3A8-5" style="edgeStyle=orthogonalEdgeStyle;rounded=0;orthogonalLoop=1;jettySize=auto;html=1;exitX=0.996;exitY=0.524;exitDx=0;exitDy=0;entryX=-0.001;entryY=0.413;entryDx=0;entryDy=0;exitPerimeter=0;entryPerimeter=0;" parent="1" source="kr3vqrhF4_ss1cn2y3dx-1" target="WWvZSqHIx8XrDJNFYY1C-7" edge="1">
          <mxGeometry relative="1" as="geometry">
            <Array as="points">
              <mxPoint x="570" y="385" />
              <mxPoint x="610" y="385" />
            </Array>
            <mxPoint x="800" y="480" as="targetPoint" />
          </mxGeometry>
        </mxCell>
        <mxCell id="UcqmzZQ5sdaNd45mamIq-7" value="Wishlist Request" style="edgeLabel;html=1;align=center;verticalAlign=middle;resizable=0;points=[];" parent="V6BsgPTpawuMbuSaY3A8-5" vertex="1" connectable="0">
          <mxGeometry x="0.0032" y="2" relative="1" as="geometry">
            <mxPoint x="-1" y="2" as="offset" />
          </mxGeometry>
        </mxCell>
        <mxCell id="V6BsgPTpawuMbuSaY3A8-8" style="edgeStyle=orthogonalEdgeStyle;rounded=0;orthogonalLoop=1;jettySize=auto;html=1;entryX=0;entryY=0.25;entryDx=0;entryDy=0;exitX=1.001;exitY=0.838;exitDx=0;exitDy=0;exitPerimeter=0;" parent="1" source="kr3vqrhF4_ss1cn2y3dx-1" target="kr3vqrhF4_ss1cn2y3dx-4" edge="1">
          <mxGeometry relative="1" as="geometry">
            <mxPoint x="520" y="560" as="sourcePoint" />
            <mxPoint x="742" y="770" as="targetPoint" />
            <Array as="points">
              <mxPoint x="590" y="454" />
              <mxPoint x="590" y="595" />
            </Array>
          </mxGeometry>
        </mxCell>
        <mxCell id="UcqmzZQ5sdaNd45mamIq-13" value="Achievements Request" style="edgeLabel;html=1;align=center;verticalAlign=middle;resizable=0;points=[];" parent="V6BsgPTpawuMbuSaY3A8-8" vertex="1" connectable="0">
          <mxGeometry x="-0.0118" y="1" relative="1" as="geometry">
            <mxPoint x="56" y="1" as="offset" />
          </mxGeometry>
        </mxCell>
        <mxCell id="UcqmzZQ5sdaNd45mamIq-9" style="edgeStyle=orthogonalEdgeStyle;rounded=0;orthogonalLoop=1;jettySize=auto;html=1;entryX=0;entryY=0;entryDx=0;entryDy=0;exitX=0.999;exitY=0.406;exitDx=0;exitDy=0;exitPerimeter=0;" parent="1" source="kr3vqrhF4_ss1cn2y3dx-1" target="WWvZSqHIx8XrDJNFYY1C-7" edge="1">
          <mxGeometry relative="1" as="geometry">
            <Array as="points">
              <mxPoint x="567" y="359" />
            </Array>
            <mxPoint x="600" y="378" as="sourcePoint" />
            <mxPoint x="820.0000000000002" y="372.5" as="targetPoint" />
          </mxGeometry>
        </mxCell>
        <mxCell id="UcqmzZQ5sdaNd45mamIq-11" value="Add/Delete Game to Wishlist" style="edgeLabel;html=1;align=center;verticalAlign=middle;resizable=0;points=[];" parent="UcqmzZQ5sdaNd45mamIq-9" vertex="1" connectable="0">
          <mxGeometry x="-0.0005" y="1" relative="1" as="geometry">
            <mxPoint x="7" as="offset" />
          </mxGeometry>
        </mxCell>
        <mxCell id="UcqmzZQ5sdaNd45mamIq-21" style="edgeStyle=orthogonalEdgeStyle;rounded=0;orthogonalLoop=1;jettySize=auto;html=1;exitX=1;exitY=0.25;exitDx=0;exitDy=0;entryX=0;entryY=0.5;entryDx=0;entryDy=0;" parent="1" source="kr3vqrhF4_ss1cn2y3dx-1" target="jUymLvn3LE_0lTtVYQgT-18" edge="1">
          <mxGeometry relative="1" as="geometry">
            <Array as="points">
              <mxPoint x="600" y="325" />
              <mxPoint x="600" y="280" />
            </Array>
          </mxGeometry>
        </mxCell>
        <mxCell id="UcqmzZQ5sdaNd45mamIq-23" value="Add/Delete Friend" style="edgeLabel;html=1;align=center;verticalAlign=middle;resizable=0;points=[];" parent="UcqmzZQ5sdaNd45mamIq-21" vertex="1" connectable="0">
          <mxGeometry x="0.058" y="1" relative="1" as="geometry">
            <mxPoint x="40" as="offset" />
          </mxGeometry>
        </mxCell>
        <mxCell id="pRAYqFOEsxO5ya6aPDZu-7" style="edgeStyle=orthogonalEdgeStyle;rounded=0;orthogonalLoop=1;jettySize=auto;html=1;exitX=0.604;exitY=-0.004;exitDx=0;exitDy=0;entryX=0;entryY=0.25;entryDx=0;entryDy=0;exitPerimeter=0;" parent="1" source="kr3vqrhF4_ss1cn2y3dx-1" target="pRAYqFOEsxO5ya6aPDZu-2" edge="1">
          <mxGeometry relative="1" as="geometry" />
        </mxCell>
        <mxCell id="pRAYqFOEsxO5ya6aPDZu-15" value="Account Data" style="edgeLabel;html=1;align=center;verticalAlign=middle;resizable=0;points=[];" parent="pRAYqFOEsxO5ya6aPDZu-7" vertex="1" connectable="0">
          <mxGeometry x="0.2756" y="2" relative="1" as="geometry">
            <mxPoint as="offset" />
          </mxGeometry>
        </mxCell>
        <mxCell id="pRAYqFOEsxO5ya6aPDZu-9" style="edgeStyle=orthogonalEdgeStyle;rounded=0;orthogonalLoop=1;jettySize=auto;html=1;exitX=0.429;exitY=-0.002;exitDx=0;exitDy=0;entryX=0;entryY=0.25;entryDx=0;entryDy=0;exitPerimeter=0;" parent="1" source="kr3vqrhF4_ss1cn2y3dx-1" target="pRAYqFOEsxO5ya6aPDZu-4" edge="1">
          <mxGeometry relative="1" as="geometry" />
        </mxCell>
        <mxCell id="pRAYqFOEsxO5ya6aPDZu-17" value="Autorization Data" style="edgeLabel;html=1;align=center;verticalAlign=middle;resizable=0;points=[];" parent="pRAYqFOEsxO5ya6aPDZu-9" vertex="1" connectable="0">
          <mxGeometry x="0.3609" y="5" relative="1" as="geometry">
            <mxPoint x="27" y="3" as="offset" />
          </mxGeometry>
        </mxCell>
        <mxCell id="kr3vqrhF4_ss1cn2y3dx-1" value="USER" style="html=1;dashed=0;whitespace=wrap;" parent="1" vertex="1">
          <mxGeometry x="390" y="270" width="157" height="220" as="geometry" />
        </mxCell>
        <mxCell id="V6BsgPTpawuMbuSaY3A8-11" style="edgeStyle=orthogonalEdgeStyle;rounded=0;orthogonalLoop=1;jettySize=auto;html=1;exitX=-0.006;exitY=0.673;exitDx=0;exitDy=0;entryX=1;entryY=0.5;entryDx=0;entryDy=0;exitPerimeter=0;" parent="1" source="kr3vqrhF4_ss1cn2y3dx-2" target="WWvZSqHIx8XrDJNFYY1C-5" edge="1">
          <mxGeometry relative="1" as="geometry">
            <mxPoint x="1400" y="390" as="sourcePoint" />
            <mxPoint x="970" y="525" as="targetPoint" />
            <Array as="points">
              <mxPoint x="1330" y="435" />
              <mxPoint x="1330" y="500" />
            </Array>
          </mxGeometry>
        </mxCell>
        <mxCell id="V6BsgPTpawuMbuSaY3A8-16" value="Games Response" style="edgeLabel;html=1;align=center;verticalAlign=middle;resizable=0;points=[];" parent="V6BsgPTpawuMbuSaY3A8-11" vertex="1" connectable="0">
          <mxGeometry x="0.1947" y="-1" relative="1" as="geometry">
            <mxPoint as="offset" />
          </mxGeometry>
        </mxCell>
        <mxCell id="V6BsgPTpawuMbuSaY3A8-13" style="edgeStyle=orthogonalEdgeStyle;rounded=0;orthogonalLoop=1;jettySize=auto;html=1;exitX=-0.011;exitY=0.856;exitDx=0;exitDy=0;entryX=1;entryY=0.75;entryDx=0;entryDy=0;exitPerimeter=0;" parent="1" source="kr3vqrhF4_ss1cn2y3dx-2" target="kr3vqrhF4_ss1cn2y3dx-4" edge="1">
          <mxGeometry relative="1" as="geometry">
            <Array as="points">
              <mxPoint x="1370" y="471" />
              <mxPoint x="1370" y="625" />
            </Array>
            <mxPoint x="1519" y="663" as="sourcePoint" />
            <mxPoint x="1090" y="810" as="targetPoint" />
          </mxGeometry>
        </mxCell>
        <mxCell id="UcqmzZQ5sdaNd45mamIq-2" value="Achievements Response" style="edgeLabel;html=1;align=center;verticalAlign=middle;resizable=0;points=[];" parent="V6BsgPTpawuMbuSaY3A8-13" vertex="1" connectable="0">
          <mxGeometry x="0.5659" y="4" relative="1" as="geometry">
            <mxPoint x="100" y="-4" as="offset" />
          </mxGeometry>
        </mxCell>
        <mxCell id="pRAYqFOEsxO5ya6aPDZu-12" style="edgeStyle=orthogonalEdgeStyle;rounded=0;orthogonalLoop=1;jettySize=auto;html=1;exitX=0.124;exitY=0;exitDx=0;exitDy=0;entryX=1;entryY=0.5;entryDx=0;entryDy=0;exitPerimeter=0;" parent="1" source="kr3vqrhF4_ss1cn2y3dx-2" target="pRAYqFOEsxO5ya6aPDZu-4" edge="1">
          <mxGeometry relative="1" as="geometry" />
        </mxCell>
        <mxCell id="pRAYqFOEsxO5ya6aPDZu-20" value="Autorization Status" style="edgeLabel;html=1;align=center;verticalAlign=middle;resizable=0;points=[];" parent="pRAYqFOEsxO5ya6aPDZu-12" vertex="1" connectable="0">
          <mxGeometry x="0.6434" relative="1" as="geometry">
            <mxPoint x="25" as="offset" />
          </mxGeometry>
        </mxCell>
        <mxCell id="kr3vqrhF4_ss1cn2y3dx-2" value="PSN/XBOX/STEAM/NINTENDO" style="html=1;dashed=0;whitespace=wrap;" parent="1" vertex="1">
          <mxGeometry x="1400" y="300" width="200" height="200" as="geometry" />
        </mxCell>
        <mxCell id="kr3vqrhF4_ss1cn2y3dx-3" value="6" style="swimlane;childLayout=stackLayout;horizontal=1;startSize=30;horizontalStack=0;rounded=1;fontSize=14;fontStyle=0;strokeWidth=1;resizeParent=0;resizeLast=1;shadow=0;dashed=0;align=center;fillColor=#FFFFFF;" parent="1" vertex="1">
          <mxGeometry x="800" y="550" width="170" height="90" as="geometry" />
        </mxCell>
        <mxCell id="kr3vqrhF4_ss1cn2y3dx-4" value="Get Achievements Information" style="align=center;strokeColor=none;fillColor=none;spacingLeft=4;fontSize=12;verticalAlign=middle;resizable=0;rotatable=0;part=1;" parent="kr3vqrhF4_ss1cn2y3dx-3" vertex="1">
          <mxGeometry y="30" width="170" height="60" as="geometry" />
        </mxCell>
        <mxCell id="kr3vqrhF4_ss1cn2y3dx-78" value="D1&amp;nbsp;&lt;span style=&quot;white-space: pre;&quot;&gt;&#x9;&lt;/span&gt;&amp;nbsp;Users" style="html=1;dashed=0;whiteSpace=wrap;shape=mxgraph.dfd.dataStoreID;align=left;spacingLeft=3;points=[[0,0],[0.5,0],[1,0],[0,0.5],[1,0.5],[0,1],[0.5,1],[1,1]];" parent="1" vertex="1">
          <mxGeometry x="1100" y="200" width="190" height="30" as="geometry" />
        </mxCell>
        <mxCell id="kr3vqrhF4_ss1cn2y3dx-92" value="D2&lt;span style=&quot;white-space: pre;&quot;&gt;&#x9;&lt;/span&gt;&amp;nbsp;Games" style="html=1;dashed=0;whiteSpace=wrap;shape=mxgraph.dfd.dataStoreID;align=left;spacingLeft=3;points=[[0,0],[0.5,0],[1,0],[0,0.5],[1,0.5],[0,1],[0.5,1],[1,1]];" parent="1" vertex="1">
          <mxGeometry x="1100" y="425" width="190" height="30" as="geometry" />
        </mxCell>
        <mxCell id="kr3vqrhF4_ss1cn2y3dx-93" value="D4&amp;nbsp;&lt;span style=&quot;white-space: pre;&quot;&gt;&#x9;&lt;/span&gt;&amp;nbsp;Achievements" style="html=1;dashed=0;whiteSpace=wrap;shape=mxgraph.dfd.dataStoreID;align=left;spacingLeft=3;points=[[0,0],[0.5,0],[1,0],[0,0.5],[1,0.5],[0,1],[0.5,1],[1,1]];" parent="1" vertex="1">
          <mxGeometry x="1100" y="570" width="190" height="30" as="geometry" />
        </mxCell>
        <mxCell id="kr3vqrhF4_ss1cn2y3dx-100" style="edgeStyle=orthogonalEdgeStyle;rounded=0;orthogonalLoop=1;jettySize=auto;html=1;exitX=0;exitY=0.5;exitDx=0;exitDy=0;" parent="1" source="jUymLvn3LE_0lTtVYQgT-11" edge="1">
          <mxGeometry relative="1" as="geometry">
            <mxPoint x="530" y="270" as="targetPoint" />
            <Array as="points">
              <mxPoint x="530" y="170" />
              <mxPoint x="530" y="269" />
            </Array>
          </mxGeometry>
        </mxCell>
        <mxCell id="UcqmzZQ5sdaNd45mamIq-4" value="Data Status" style="edgeLabel;html=1;align=center;verticalAlign=middle;resizable=0;points=[];" parent="kr3vqrhF4_ss1cn2y3dx-100" vertex="1" connectable="0">
          <mxGeometry x="0.0613" y="3" relative="1" as="geometry">
            <mxPoint x="14" y="-3" as="offset" />
          </mxGeometry>
        </mxCell>
        <mxCell id="kr3vqrhF4_ss1cn2y3dx-101" style="edgeStyle=orthogonalEdgeStyle;rounded=0;orthogonalLoop=1;jettySize=auto;html=1;entryX=-0.001;entryY=0.349;entryDx=0;entryDy=0;entryPerimeter=0;exitX=1.009;exitY=0.152;exitDx=0;exitDy=0;exitPerimeter=0;" parent="1" source="WWvZSqHIx8XrDJNFYY1C-7" target="kr3vqrhF4_ss1cn2y3dx-2" edge="1">
          <mxGeometry relative="1" as="geometry">
            <mxPoint x="969.8299999999999" y="369.9200000000001" as="sourcePoint" />
            <mxPoint x="1398.7399999999998" y="370.01" as="targetPoint" />
            <Array as="points">
              <mxPoint x="1400" y="370" />
            </Array>
          </mxGeometry>
        </mxCell>
        <mxCell id="V6BsgPTpawuMbuSaY3A8-15" value="Games Request" style="edgeLabel;html=1;align=center;verticalAlign=middle;resizable=0;points=[];" parent="kr3vqrhF4_ss1cn2y3dx-101" vertex="1" connectable="0">
          <mxGeometry x="-0.3469" y="1" relative="1" as="geometry">
            <mxPoint x="35" y="1" as="offset" />
          </mxGeometry>
        </mxCell>
        <mxCell id="V6BsgPTpawuMbuSaY3A8-2" style="edgeStyle=orthogonalEdgeStyle;rounded=0;orthogonalLoop=1;jettySize=auto;html=1;exitX=0;exitY=0.15;exitDx=0;exitDy=0;entryX=0.994;entryY=0.155;entryDx=0;entryDy=0;entryPerimeter=0;exitPerimeter=0;" parent="1" source="jUymLvn3LE_0lTtVYQgT-18" target="kr3vqrhF4_ss1cn2y3dx-1" edge="1">
          <mxGeometry relative="1" as="geometry">
            <Array as="points">
              <mxPoint x="580" y="260" />
              <mxPoint x="580" y="304" />
            </Array>
          </mxGeometry>
        </mxCell>
        <mxCell id="UcqmzZQ5sdaNd45mamIq-20" value="Friends Response" style="edgeLabel;html=1;align=center;verticalAlign=middle;resizable=0;points=[];" parent="V6BsgPTpawuMbuSaY3A8-2" vertex="1" connectable="0">
          <mxGeometry x="0.0326" relative="1" as="geometry">
            <mxPoint x="24" as="offset" />
          </mxGeometry>
        </mxCell>
        <mxCell id="V6BsgPTpawuMbuSaY3A8-4" style="edgeStyle=orthogonalEdgeStyle;rounded=0;orthogonalLoop=1;jettySize=auto;html=1;exitX=0;exitY=0.5;exitDx=0;exitDy=0;entryX=1;entryY=0.75;entryDx=0;entryDy=0;" parent="1" source="WWvZSqHIx8XrDJNFYY1C-5" target="kr3vqrhF4_ss1cn2y3dx-1" edge="1">
          <mxGeometry relative="1" as="geometry">
            <mxPoint x="693.16" y="625" as="sourcePoint" />
            <mxPoint x="440.00300000000004" y="624.7400000000002" as="targetPoint" />
            <Array as="points">
              <mxPoint x="600" y="500" />
              <mxPoint x="600" y="435" />
            </Array>
          </mxGeometry>
        </mxCell>
        <mxCell id="UcqmzZQ5sdaNd45mamIq-6" value="Games Response" style="edgeLabel;html=1;align=center;verticalAlign=middle;resizable=0;points=[];" parent="V6BsgPTpawuMbuSaY3A8-4" vertex="1" connectable="0">
          <mxGeometry x="0.1933" y="2" relative="1" as="geometry">
            <mxPoint x="60" y="-2" as="offset" />
          </mxGeometry>
        </mxCell>
        <mxCell id="V6BsgPTpawuMbuSaY3A8-6" style="edgeStyle=orthogonalEdgeStyle;rounded=0;orthogonalLoop=1;jettySize=auto;html=1;exitX=-0.004;exitY=0.602;exitDx=0;exitDy=0;entryX=0.998;entryY=0.579;entryDx=0;entryDy=0;exitPerimeter=0;entryPerimeter=0;" parent="1" source="WWvZSqHIx8XrDJNFYY1C-7" target="kr3vqrhF4_ss1cn2y3dx-1" edge="1">
          <mxGeometry relative="1" as="geometry">
            <Array as="points">
              <mxPoint x="770" y="396" />
              <mxPoint x="600" y="397" />
              <mxPoint x="580" y="397" />
            </Array>
            <mxPoint x="800" y="495" as="sourcePoint" />
          </mxGeometry>
        </mxCell>
        <mxCell id="UcqmzZQ5sdaNd45mamIq-8" value="Wishlist Response" style="edgeLabel;html=1;align=center;verticalAlign=middle;resizable=0;points=[];" parent="V6BsgPTpawuMbuSaY3A8-6" vertex="1" connectable="0">
          <mxGeometry x="-0.0351" relative="1" as="geometry">
            <mxPoint x="-4" as="offset" />
          </mxGeometry>
        </mxCell>
        <mxCell id="V6BsgPTpawuMbuSaY3A8-9" style="edgeStyle=orthogonalEdgeStyle;rounded=0;orthogonalLoop=1;jettySize=auto;html=1;exitX=-0.001;exitY=0.61;exitDx=0;exitDy=0;entryX=1.001;entryY=0.906;entryDx=0;entryDy=0;entryPerimeter=0;exitPerimeter=0;" parent="1" source="kr3vqrhF4_ss1cn2y3dx-4" target="kr3vqrhF4_ss1cn2y3dx-1" edge="1">
          <mxGeometry relative="1" as="geometry">
            <mxPoint x="742.2" y="791.54" as="sourcePoint" />
            <mxPoint x="430" y="660" as="targetPoint" />
            <Array as="points">
              <mxPoint x="570" y="617" />
              <mxPoint x="570" y="469" />
            </Array>
          </mxGeometry>
        </mxCell>
        <mxCell id="UcqmzZQ5sdaNd45mamIq-14" value="Achievements Response" style="edgeLabel;html=1;align=center;verticalAlign=middle;resizable=0;points=[];" parent="V6BsgPTpawuMbuSaY3A8-9" vertex="1" connectable="0">
          <mxGeometry x="-0.1481" y="1" relative="1" as="geometry">
            <mxPoint x="39" as="offset" />
          </mxGeometry>
        </mxCell>
        <mxCell id="V6BsgPTpawuMbuSaY3A8-12" style="edgeStyle=orthogonalEdgeStyle;rounded=0;orthogonalLoop=1;jettySize=auto;html=1;exitX=1;exitY=0.5;exitDx=0;exitDy=0;entryX=0;entryY=0.75;entryDx=0;entryDy=0;" parent="1" source="kr3vqrhF4_ss1cn2y3dx-4" target="kr3vqrhF4_ss1cn2y3dx-2" edge="1">
          <mxGeometry relative="1" as="geometry">
            <Array as="points">
              <mxPoint x="1350" y="610" />
              <mxPoint x="1350" y="450" />
            </Array>
            <mxPoint x="1090" y="795" as="sourcePoint" />
            <mxPoint x="1520" y="640" as="targetPoint" />
          </mxGeometry>
        </mxCell>
        <mxCell id="UcqmzZQ5sdaNd45mamIq-1" value="Achievements Request" style="edgeLabel;html=1;align=center;verticalAlign=middle;resizable=0;points=[];" parent="V6BsgPTpawuMbuSaY3A8-12" vertex="1" connectable="0">
          <mxGeometry x="-0.4222" relative="1" as="geometry">
            <mxPoint x="51" as="offset" />
          </mxGeometry>
        </mxCell>
        <mxCell id="V6BsgPTpawuMbuSaY3A8-18" style="edgeStyle=orthogonalEdgeStyle;rounded=0;orthogonalLoop=1;jettySize=auto;html=1;exitX=1;exitY=0.75;exitDx=0;exitDy=0;entryX=-0.003;entryY=0.167;entryDx=0;entryDy=0;entryPerimeter=0;startArrow=classic;startFill=1;" parent="1" source="WWvZSqHIx8XrDJNFYY1C-7" target="kr3vqrhF4_ss1cn2y3dx-92" edge="1">
          <mxGeometry relative="1" as="geometry">
            <Array as="points">
              <mxPoint x="1080" y="405" />
              <mxPoint x="1080" y="430" />
            </Array>
            <mxPoint x="970" y="410" as="sourcePoint" />
          </mxGeometry>
        </mxCell>
        <mxCell id="V6BsgPTpawuMbuSaY3A8-19" value="Games" style="edgeLabel;html=1;align=center;verticalAlign=middle;resizable=0;points=[];" parent="V6BsgPTpawuMbuSaY3A8-18" vertex="1" connectable="0">
          <mxGeometry x="-0.0612" y="1" relative="1" as="geometry">
            <mxPoint x="-23" as="offset" />
          </mxGeometry>
        </mxCell>
        <mxCell id="V6BsgPTpawuMbuSaY3A8-20" style="edgeStyle=orthogonalEdgeStyle;rounded=0;orthogonalLoop=1;jettySize=auto;html=1;exitX=1;exitY=0;exitDx=0;exitDy=0;entryX=0.005;entryY=0.667;entryDx=0;entryDy=0;entryPerimeter=0;startArrow=classic;startFill=1;" parent="1" source="WWvZSqHIx8XrDJNFYY1C-5" target="kr3vqrhF4_ss1cn2y3dx-92" edge="1">
          <mxGeometry relative="1" as="geometry">
            <Array as="points">
              <mxPoint x="1080" y="470" />
              <mxPoint x="1080" y="445" />
            </Array>
            <mxPoint x="969.6600000000001" y="485.5799999999999" as="sourcePoint" />
          </mxGeometry>
        </mxCell>
        <mxCell id="V6BsgPTpawuMbuSaY3A8-21" value="Games" style="edgeLabel;html=1;align=center;verticalAlign=middle;resizable=0;points=[];" parent="V6BsgPTpawuMbuSaY3A8-20" vertex="1" connectable="0">
          <mxGeometry x="-0.344" y="3" relative="1" as="geometry">
            <mxPoint x="2" y="3" as="offset" />
          </mxGeometry>
        </mxCell>
        <mxCell id="V6BsgPTpawuMbuSaY3A8-23" style="edgeStyle=orthogonalEdgeStyle;rounded=0;orthogonalLoop=1;jettySize=auto;html=1;exitX=1;exitY=0.75;exitDx=0;exitDy=0;entryX=-0.009;entryY=0.233;entryDx=0;entryDy=0;entryPerimeter=0;startArrow=classic;startFill=1;" parent="1" source="jUymLvn3LE_0lTtVYQgT-11" target="kr3vqrhF4_ss1cn2y3dx-78" edge="1">
          <mxGeometry relative="1" as="geometry">
            <Array as="points">
              <mxPoint x="1080" y="185" />
              <mxPoint x="1080" y="207" />
            </Array>
          </mxGeometry>
        </mxCell>
        <mxCell id="V6BsgPTpawuMbuSaY3A8-25" value="Users" style="edgeLabel;html=1;align=center;verticalAlign=middle;resizable=0;points=[];" parent="V6BsgPTpawuMbuSaY3A8-23" vertex="1" connectable="0">
          <mxGeometry x="-0.1794" y="1" relative="1" as="geometry">
            <mxPoint as="offset" />
          </mxGeometry>
        </mxCell>
        <mxCell id="V6BsgPTpawuMbuSaY3A8-24" style="edgeStyle=orthogonalEdgeStyle;rounded=0;orthogonalLoop=1;jettySize=auto;html=1;exitX=1.002;exitY=0.106;exitDx=0;exitDy=0;entryX=-0.002;entryY=0.678;entryDx=0;entryDy=0;entryPerimeter=0;exitPerimeter=0;startArrow=classic;startFill=1;" parent="1" source="jUymLvn3LE_0lTtVYQgT-18" target="kr3vqrhF4_ss1cn2y3dx-78" edge="1">
          <mxGeometry relative="1" as="geometry">
            <Array as="points">
              <mxPoint x="1080" y="256" />
              <mxPoint x="1080" y="220" />
            </Array>
          </mxGeometry>
        </mxCell>
        <mxCell id="V6BsgPTpawuMbuSaY3A8-26" value="Users" style="edgeLabel;html=1;align=center;verticalAlign=middle;resizable=0;points=[];" parent="V6BsgPTpawuMbuSaY3A8-24" vertex="1" connectable="0">
          <mxGeometry x="-0.3066" y="1" relative="1" as="geometry">
            <mxPoint as="offset" />
          </mxGeometry>
        </mxCell>
        <mxCell id="UcqmzZQ5sdaNd45mamIq-10" style="edgeStyle=orthogonalEdgeStyle;rounded=0;orthogonalLoop=1;jettySize=auto;html=1;exitX=-0.002;exitY=0.178;exitDx=0;exitDy=0;entryX=1.001;entryY=0.456;entryDx=0;entryDy=0;entryPerimeter=0;exitPerimeter=0;" parent="1" source="WWvZSqHIx8XrDJNFYY1C-7" target="kr3vqrhF4_ss1cn2y3dx-1" edge="1">
          <mxGeometry relative="1" as="geometry">
            <Array as="points">
              <mxPoint x="760" y="371" />
              <mxPoint x="640" y="370" />
              <mxPoint x="590" y="370" />
            </Array>
          </mxGeometry>
        </mxCell>
        <mxCell id="UcqmzZQ5sdaNd45mamIq-12" value="Adding/Deleting Game from Wishlist Status" style="edgeLabel;html=1;align=center;verticalAlign=middle;resizable=0;points=[];" parent="UcqmzZQ5sdaNd45mamIq-10" vertex="1" connectable="0">
          <mxGeometry x="-0.0792" y="2" relative="1" as="geometry">
            <mxPoint x="-3" y="-2" as="offset" />
          </mxGeometry>
        </mxCell>
        <mxCell id="UcqmzZQ5sdaNd45mamIq-15" style="edgeStyle=orthogonalEdgeStyle;rounded=0;orthogonalLoop=1;jettySize=auto;html=1;entryX=-0.005;entryY=0.595;entryDx=0;entryDy=0;entryPerimeter=0;exitX=1;exitY=0.25;exitDx=0;exitDy=0;" parent="1" source="WWvZSqHIx8XrDJNFYY1C-5" target="kr3vqrhF4_ss1cn2y3dx-2" edge="1">
          <mxGeometry relative="1" as="geometry">
            <mxPoint x="969.8299999999999" y="505.32000000000016" as="sourcePoint" />
            <mxPoint x="1383" y="420" as="targetPoint" />
            <Array as="points">
              <mxPoint x="1310" y="485" />
              <mxPoint x="1310" y="419" />
            </Array>
          </mxGeometry>
        </mxCell>
        <mxCell id="UcqmzZQ5sdaNd45mamIq-16" value="Games Request" style="edgeLabel;html=1;align=center;verticalAlign=middle;resizable=0;points=[];" parent="UcqmzZQ5sdaNd45mamIq-15" vertex="1" connectable="0">
          <mxGeometry x="-0.3469" y="1" relative="1" as="geometry">
            <mxPoint x="35" y="1" as="offset" />
          </mxGeometry>
        </mxCell>
        <mxCell id="UcqmzZQ5sdaNd45mamIq-17" style="edgeStyle=orthogonalEdgeStyle;rounded=0;orthogonalLoop=1;jettySize=auto;html=1;exitX=-0.003;exitY=0.434;exitDx=0;exitDy=0;entryX=1.009;entryY=0.442;entryDx=0;entryDy=0;exitPerimeter=0;entryPerimeter=0;" parent="1" source="kr3vqrhF4_ss1cn2y3dx-2" target="WWvZSqHIx8XrDJNFYY1C-7" edge="1">
          <mxGeometry relative="1" as="geometry">
            <mxPoint x="1409" y="445" as="sourcePoint" />
            <mxPoint x="970" y="386.65999999999985" as="targetPoint" />
            <Array as="points" />
          </mxGeometry>
        </mxCell>
        <mxCell id="UcqmzZQ5sdaNd45mamIq-18" value="Games Response" style="edgeLabel;html=1;align=center;verticalAlign=middle;resizable=0;points=[];" parent="UcqmzZQ5sdaNd45mamIq-17" vertex="1" connectable="0">
          <mxGeometry x="0.1947" y="-1" relative="1" as="geometry">
            <mxPoint as="offset" />
          </mxGeometry>
        </mxCell>
        <mxCell id="UcqmzZQ5sdaNd45mamIq-22" style="edgeStyle=orthogonalEdgeStyle;rounded=0;orthogonalLoop=1;jettySize=auto;html=1;exitX=0;exitY=0.75;exitDx=0;exitDy=0;entryX=0.994;entryY=0.31;entryDx=0;entryDy=0;entryPerimeter=0;" parent="1" source="jUymLvn3LE_0lTtVYQgT-18" target="kr3vqrhF4_ss1cn2y3dx-1" edge="1">
          <mxGeometry relative="1" as="geometry">
            <Array as="points">
              <mxPoint x="610" y="295" />
              <mxPoint x="610" y="338" />
            </Array>
          </mxGeometry>
        </mxCell>
        <mxCell id="UcqmzZQ5sdaNd45mamIq-24" value="Adding/Deleting Friend Status" style="edgeLabel;html=1;align=center;verticalAlign=middle;resizable=0;points=[];" parent="UcqmzZQ5sdaNd45mamIq-22" vertex="1" connectable="0">
          <mxGeometry x="-0.0711" y="-2" relative="1" as="geometry">
            <mxPoint x="41" y="2" as="offset" />
          </mxGeometry>
        </mxCell>
        <mxCell id="pRAYqFOEsxO5ya6aPDZu-1" value="1" style="swimlane;childLayout=stackLayout;horizontal=1;startSize=30;horizontalStack=0;rounded=1;fontSize=14;fontStyle=0;strokeWidth=1;resizeParent=0;resizeLast=1;shadow=0;dashed=0;align=center;fillColor=#FFFFFF;" parent="1" vertex="1">
          <mxGeometry x="800" width="170" height="90" as="geometry" />
        </mxCell>
        <mxCell id="pRAYqFOEsxO5ya6aPDZu-2" value="Register Account" style="align=center;strokeColor=none;fillColor=none;spacingLeft=4;fontSize=12;verticalAlign=middle;resizable=0;rotatable=0;part=1;" parent="pRAYqFOEsxO5ya6aPDZu-1" vertex="1">
          <mxGeometry y="30" width="170" height="60" as="geometry" />
        </mxCell>
        <mxCell id="pRAYqFOEsxO5ya6aPDZu-3" value="0" style="swimlane;childLayout=stackLayout;horizontal=1;startSize=30;horizontalStack=0;rounded=1;fontSize=14;fontStyle=0;strokeWidth=1;resizeParent=0;resizeLast=1;shadow=0;dashed=0;align=center;fillColor=#FFFFFF;" parent="1" vertex="1">
          <mxGeometry x="800" y="-110" width="170" height="90" as="geometry" />
        </mxCell>
        <mxCell id="pRAYqFOEsxO5ya6aPDZu-4" value="Autorize Account" style="align=center;strokeColor=none;fillColor=none;spacingLeft=4;fontSize=12;verticalAlign=middle;resizable=0;rotatable=0;part=1;" parent="pRAYqFOEsxO5ya6aPDZu-3" vertex="1">
          <mxGeometry y="30" width="170" height="60" as="geometry" />
        </mxCell>
        <mxCell id="pRAYqFOEsxO5ya6aPDZu-5" style="edgeStyle=orthogonalEdgeStyle;rounded=0;orthogonalLoop=1;jettySize=auto;html=1;exitX=1;exitY=0.75;exitDx=0;exitDy=0;entryX=0.096;entryY=-0.101;entryDx=0;entryDy=0;entryPerimeter=0;startArrow=classic;startFill=1;" parent="1" target="kr3vqrhF4_ss1cn2y3dx-78" edge="1">
          <mxGeometry relative="1" as="geometry">
            <Array as="points">
              <mxPoint x="1118" y="50" />
            </Array>
            <mxPoint x="970" y="50" as="sourcePoint" />
            <mxPoint x="1098" y="72" as="targetPoint" />
          </mxGeometry>
        </mxCell>
        <mxCell id="pRAYqFOEsxO5ya6aPDZu-6" value="Users" style="edgeLabel;html=1;align=center;verticalAlign=middle;resizable=0;points=[];" parent="pRAYqFOEsxO5ya6aPDZu-5" vertex="1" connectable="0">
          <mxGeometry x="-0.1794" y="1" relative="1" as="geometry">
            <mxPoint x="-40" as="offset" />
          </mxGeometry>
        </mxCell>
        <mxCell id="pRAYqFOEsxO5ya6aPDZu-8" style="edgeStyle=orthogonalEdgeStyle;rounded=0;orthogonalLoop=1;jettySize=auto;html=1;exitX=0;exitY=0.5;exitDx=0;exitDy=0;entryX=0.673;entryY=-0.004;entryDx=0;entryDy=0;entryPerimeter=0;" parent="1" source="pRAYqFOEsxO5ya6aPDZu-2" target="kr3vqrhF4_ss1cn2y3dx-1" edge="1">
          <mxGeometry relative="1" as="geometry" />
        </mxCell>
        <mxCell id="pRAYqFOEsxO5ya6aPDZu-16" value="Registration Status" style="edgeLabel;html=1;align=center;verticalAlign=middle;resizable=0;points=[];" parent="pRAYqFOEsxO5ya6aPDZu-8" vertex="1" connectable="0">
          <mxGeometry x="-0.1735" y="1" relative="1" as="geometry">
            <mxPoint x="23" as="offset" />
          </mxGeometry>
        </mxCell>
        <mxCell id="pRAYqFOEsxO5ya6aPDZu-10" style="edgeStyle=orthogonalEdgeStyle;rounded=0;orthogonalLoop=1;jettySize=auto;html=1;exitX=0;exitY=0.5;exitDx=0;exitDy=0;entryX=0.5;entryY=0;entryDx=0;entryDy=0;" parent="1" source="pRAYqFOEsxO5ya6aPDZu-4" target="kr3vqrhF4_ss1cn2y3dx-1" edge="1">
          <mxGeometry relative="1" as="geometry" />
        </mxCell>
        <mxCell id="pRAYqFOEsxO5ya6aPDZu-18" value="Autorization Status" style="edgeLabel;html=1;align=center;verticalAlign=middle;resizable=0;points=[];" parent="pRAYqFOEsxO5ya6aPDZu-10" vertex="1" connectable="0">
          <mxGeometry x="-0.3649" y="1" relative="1" as="geometry">
            <mxPoint x="17" as="offset" />
          </mxGeometry>
        </mxCell>
        <mxCell id="pRAYqFOEsxO5ya6aPDZu-11" style="edgeStyle=orthogonalEdgeStyle;rounded=0;orthogonalLoop=1;jettySize=auto;html=1;exitX=1;exitY=0.25;exitDx=0;exitDy=0;entryX=0.2;entryY=-0.01;entryDx=0;entryDy=0;entryPerimeter=0;" parent="1" source="pRAYqFOEsxO5ya6aPDZu-4" target="kr3vqrhF4_ss1cn2y3dx-2" edge="1">
          <mxGeometry relative="1" as="geometry" />
        </mxCell>
        <mxCell id="pRAYqFOEsxO5ya6aPDZu-19" value="Autorization Data" style="edgeLabel;html=1;align=center;verticalAlign=middle;resizable=0;points=[];" parent="pRAYqFOEsxO5ya6aPDZu-11" vertex="1" connectable="0">
          <mxGeometry x="-0.6071" y="2" relative="1" as="geometry">
            <mxPoint as="offset" />
          </mxGeometry>
        </mxCell>
        <mxCell id="WWvZSqHIx8XrDJNFYY1C-1" value="D3&amp;nbsp;&lt;span style=&quot;white-space: pre;&quot;&gt;&#x9;&lt;/span&gt;&amp;nbsp;Platforms" style="html=1;dashed=0;whiteSpace=wrap;shape=mxgraph.dfd.dataStoreID;align=left;spacingLeft=3;points=[[0,0],[0.5,0],[1,0],[0,0.5],[1,0.5],[0,1],[0.5,1],[1,1]];" parent="1" vertex="1">
          <mxGeometry x="1100" y="520" width="190" height="30" as="geometry" />
        </mxCell>
        <mxCell id="WWvZSqHIx8XrDJNFYY1C-4" value="5" style="swimlane;childLayout=stackLayout;horizontal=1;startSize=30;horizontalStack=0;rounded=1;fontSize=14;fontStyle=0;strokeWidth=1;resizeParent=0;resizeLast=1;shadow=0;dashed=0;align=center;fillColor=#FFFFFF;" parent="1" vertex="1">
          <mxGeometry x="800" y="440" width="170" height="90" as="geometry" />
        </mxCell>
        <mxCell id="WWvZSqHIx8XrDJNFYY1C-5" value="Get Games Information" style="align=center;strokeColor=none;fillColor=none;spacingLeft=4;fontSize=12;verticalAlign=middle;resizable=0;rotatable=0;part=1;" parent="WWvZSqHIx8XrDJNFYY1C-4" vertex="1">
          <mxGeometry y="30" width="170" height="60" as="geometry" />
        </mxCell>
        <mxCell id="WWvZSqHIx8XrDJNFYY1C-6" value="4" style="swimlane;childLayout=stackLayout;horizontal=1;startSize=30;horizontalStack=0;rounded=1;fontSize=14;fontStyle=0;strokeWidth=1;resizeParent=0;resizeLast=1;shadow=0;dashed=0;align=center;fillColor=#FFFFFF;" parent="1" vertex="1">
          <mxGeometry x="800" y="330" width="170" height="90" as="geometry" />
        </mxCell>
        <mxCell id="WWvZSqHIx8XrDJNFYY1C-7" value="Manage Wishlist" style="align=center;strokeColor=none;fillColor=none;spacingLeft=4;fontSize=12;verticalAlign=middle;resizable=0;rotatable=0;part=1;" parent="WWvZSqHIx8XrDJNFYY1C-6" vertex="1">
          <mxGeometry y="30" width="170" height="60" as="geometry" />
        </mxCell>
        <mxCell id="WWvZSqHIx8XrDJNFYY1C-8" style="edgeStyle=orthogonalEdgeStyle;rounded=0;orthogonalLoop=1;jettySize=auto;html=1;exitX=1;exitY=0.75;exitDx=0;exitDy=0;entryX=0;entryY=0.236;entryDx=0;entryDy=0;startArrow=classic;startFill=1;entryPerimeter=0;" parent="1" source="WWvZSqHIx8XrDJNFYY1C-5" target="WWvZSqHIx8XrDJNFYY1C-1" edge="1">
          <mxGeometry relative="1" as="geometry">
            <Array as="points">
              <mxPoint x="1070" y="515" />
              <mxPoint x="1070" y="527" />
            </Array>
            <mxPoint x="1000" y="560" as="sourcePoint" />
            <mxPoint x="1129" y="585" as="targetPoint" />
          </mxGeometry>
        </mxCell>
        <mxCell id="WWvZSqHIx8XrDJNFYY1C-9" value="Platforms" style="edgeLabel;html=1;align=center;verticalAlign=middle;resizable=0;points=[];" parent="WWvZSqHIx8XrDJNFYY1C-8" vertex="1" connectable="0">
          <mxGeometry x="-0.0612" y="1" relative="1" as="geometry">
            <mxPoint x="-6" as="offset" />
          </mxGeometry>
        </mxCell>
        <mxCell id="WWvZSqHIx8XrDJNFYY1C-10" style="edgeStyle=orthogonalEdgeStyle;rounded=0;orthogonalLoop=1;jettySize=auto;html=1;exitX=1.003;exitY=0.334;exitDx=0;exitDy=0;entryX=0.002;entryY=0.671;entryDx=0;entryDy=0;entryPerimeter=0;startArrow=classic;startFill=1;exitPerimeter=0;" parent="1" source="kr3vqrhF4_ss1cn2y3dx-3" target="WWvZSqHIx8XrDJNFYY1C-1" edge="1">
          <mxGeometry relative="1" as="geometry">
            <Array as="points">
              <mxPoint x="1070" y="580" />
              <mxPoint x="1070" y="540" />
            </Array>
            <mxPoint x="960" y="575" as="sourcePoint" />
            <mxPoint x="1091" y="550" as="targetPoint" />
          </mxGeometry>
        </mxCell>
        <mxCell id="WWvZSqHIx8XrDJNFYY1C-11" value="Platforms" style="edgeLabel;html=1;align=center;verticalAlign=middle;resizable=0;points=[];" parent="WWvZSqHIx8XrDJNFYY1C-10" vertex="1" connectable="0">
          <mxGeometry x="-0.344" y="3" relative="1" as="geometry">
            <mxPoint x="2" y="3" as="offset" />
          </mxGeometry>
        </mxCell>
        <mxCell id="WWvZSqHIx8XrDJNFYY1C-12" style="edgeStyle=orthogonalEdgeStyle;rounded=0;orthogonalLoop=1;jettySize=auto;html=1;exitX=1;exitY=0.25;exitDx=0;exitDy=0;entryX=0;entryY=0.5;entryDx=0;entryDy=0;startArrow=classic;startFill=1;" parent="1" source="kr3vqrhF4_ss1cn2y3dx-4" target="kr3vqrhF4_ss1cn2y3dx-93" edge="1">
          <mxGeometry relative="1" as="geometry">
            <Array as="points">
              <mxPoint x="1080" y="595" />
              <mxPoint x="1080" y="585" />
            </Array>
            <mxPoint x="970" y="680" as="sourcePoint" />
            <mxPoint x="1097" y="640" as="targetPoint" />
          </mxGeometry>
        </mxCell>
        <mxCell id="WWvZSqHIx8XrDJNFYY1C-13" value="Achievements" style="edgeLabel;html=1;align=center;verticalAlign=middle;resizable=0;points=[];" parent="WWvZSqHIx8XrDJNFYY1C-12" vertex="1" connectable="0">
          <mxGeometry x="-0.344" y="3" relative="1" as="geometry">
            <mxPoint x="14" y="3" as="offset" />
          </mxGeometry>
        </mxCell>
      </root>
    </mxGraphModel>
  </diagram>
  <diagram id="AzT10XqFEXVrXRUfjEVo" name="Sequence Diagram">
    <mxGraphModel dx="1015" dy="694" grid="1" gridSize="10" guides="1" tooltips="1" connect="1" arrows="1" fold="1" page="1" pageScale="1" pageWidth="827" pageHeight="1169" math="0" shadow="0">
      <root>
        <mxCell id="0" />
        <mxCell id="1" parent="0" />
        <mxCell id="NppBiu7GB2F2AbxF_H7_-1" value="" style="shape=umlLifeline;perimeter=lifelinePerimeter;whiteSpace=wrap;html=1;container=1;dropTarget=0;collapsible=0;recursiveResize=0;outlineConnect=0;portConstraint=eastwest;newEdgeStyle={&quot;curved&quot;:0,&quot;rounded&quot;:0};participant=umlActor;" parent="1" vertex="1">
          <mxGeometry x="60" y="30" width="20" height="980" as="geometry" />
        </mxCell>
        <mxCell id="NppBiu7GB2F2AbxF_H7_-3" value="1. POST/registration" style="html=1;verticalAlign=bottom;endArrow=block;curved=0;rounded=0;entryX=0;entryY=0;entryDx=0;entryDy=5;" parent="1" source="NppBiu7GB2F2AbxF_H7_-1" target="NppBiu7GB2F2AbxF_H7_-2" edge="1">
          <mxGeometry relative="1" as="geometry">
            <mxPoint x="130" y="105" as="sourcePoint" />
          </mxGeometry>
        </mxCell>
        <mxCell id="NppBiu7GB2F2AbxF_H7_-4" value="Response 200" style="html=1;verticalAlign=bottom;endArrow=open;dashed=1;endSize=8;curved=0;rounded=0;" parent="1" edge="1">
          <mxGeometry relative="1" as="geometry">
            <mxPoint x="69.5" y="143" as="targetPoint" />
            <mxPoint x="284" y="143" as="sourcePoint" />
          </mxGeometry>
        </mxCell>
        <mxCell id="NppBiu7GB2F2AbxF_H7_-5" value="GSTAT" style="shape=umlLifeline;perimeter=lifelinePerimeter;whiteSpace=wrap;html=1;container=1;dropTarget=0;collapsible=0;recursiveResize=0;outlineConnect=0;portConstraint=eastwest;newEdgeStyle={&quot;curved&quot;:0,&quot;rounded&quot;:0};" parent="1" vertex="1">
          <mxGeometry x="240" y="30" width="100" height="980" as="geometry" />
        </mxCell>
        <mxCell id="NppBiu7GB2F2AbxF_H7_-2" value="" style="html=1;points=[[0,0,0,0,5],[0,1,0,0,-5],[1,0,0,0,5],[1,1,0,0,-5]];perimeter=orthogonalPerimeter;outlineConnect=0;targetShapes=umlLifeline;portConstraint=eastwest;newEdgeStyle={&quot;curved&quot;:0,&quot;rounded&quot;:0};" parent="NppBiu7GB2F2AbxF_H7_-5" vertex="1">
          <mxGeometry x="45" y="70" width="10" height="900" as="geometry" />
        </mxCell>
        <mxCell id="fCOKmyHahU0a3KJWpImN-2" value="" style="html=1;points=[[0,0,0,0,5],[0,1,0,0,-5],[1,0,0,0,5],[1,1,0,0,-5]];perimeter=orthogonalPerimeter;outlineConnect=0;targetShapes=umlLifeline;portConstraint=eastwest;newEdgeStyle={&quot;curved&quot;:0,&quot;rounded&quot;:0};" parent="NppBiu7GB2F2AbxF_H7_-5" vertex="1">
          <mxGeometry x="50" y="280" width="10" height="70" as="geometry" />
        </mxCell>
        <mxCell id="NppBiu7GB2F2AbxF_H7_-6" value="&lt;span style=&quot;color: rgb(0, 0, 0); font-family: Helvetica; font-size: 11px; font-style: normal; font-variant-ligatures: normal; font-variant-caps: normal; font-weight: 400; letter-spacing: normal; orphans: 2; text-align: center; text-indent: 0px; text-transform: none; widows: 2; word-spacing: 0px; -webkit-text-stroke-width: 0px; background-color: rgb(255, 255, 255); text-decoration-thickness: initial; text-decoration-style: initial; text-decoration-color: initial; float: none; display: inline !important;&quot;&gt;Register a new user&lt;/span&gt;" style="text;whiteSpace=wrap;html=1;" parent="1" vertex="1">
          <mxGeometry x="127.5" y="100" width="105" height="20" as="geometry" />
        </mxCell>
        <mxCell id="NppBiu7GB2F2AbxF_H7_-15" value="API&amp;nbsp;" style="shape=umlLifeline;perimeter=lifelinePerimeter;whiteSpace=wrap;html=1;container=1;dropTarget=0;collapsible=0;recursiveResize=0;outlineConnect=0;portConstraint=eastwest;newEdgeStyle={&quot;curved&quot;:0,&quot;rounded&quot;:0};" parent="1" vertex="1">
          <mxGeometry x="460" y="30" width="100" height="980" as="geometry" />
        </mxCell>
        <mxCell id="vmzCPV0AZ8NfDSpAhuxM-65" value="" style="html=1;points=[[0,0,0,0,5],[0,1,0,0,-5],[1,0,0,0,5],[1,1,0,0,-5]];perimeter=orthogonalPerimeter;outlineConnect=0;targetShapes=umlLifeline;portConstraint=eastwest;newEdgeStyle={&quot;curved&quot;:0,&quot;rounded&quot;:0};" parent="NppBiu7GB2F2AbxF_H7_-15" vertex="1">
          <mxGeometry x="45" y="280" width="10" height="70" as="geometry" />
        </mxCell>
        <mxCell id="vmzCPV0AZ8NfDSpAhuxM-56" value="2. POST/authorization" style="html=1;verticalAlign=bottom;endArrow=open;curved=0;rounded=0;entryX=0;entryY=0;entryDx=0;entryDy=5;endFill=0;" parent="1" source="NppBiu7GB2F2AbxF_H7_-1" edge="1">
          <mxGeometry relative="1" as="geometry">
            <mxPoint x="131" y="200" as="sourcePoint" />
            <mxPoint x="286" y="200" as="targetPoint" />
          </mxGeometry>
        </mxCell>
        <mxCell id="vmzCPV0AZ8NfDSpAhuxM-57" value="&lt;span style=&quot;color: rgb(0, 0, 0); font-family: Helvetica; font-size: 11px; font-style: normal; font-variant-ligatures: normal; font-variant-caps: normal; font-weight: 400; letter-spacing: normal; orphans: 2; text-align: center; text-indent: 0px; text-transform: none; widows: 2; word-spacing: 0px; -webkit-text-stroke-width: 0px; background-color: rgb(255, 255, 255); text-decoration-thickness: initial; text-decoration-style: initial; text-decoration-color: initial; float: none; display: inline !important;&quot;&gt;Log in a user&lt;/span&gt;" style="text;whiteSpace=wrap;html=1;" parent="1" vertex="1">
          <mxGeometry x="143" y="194" width="105" height="20" as="geometry" />
        </mxCell>
        <mxCell id="vmzCPV0AZ8NfDSpAhuxM-58" value="3. GET/games/{User_id}" style="html=1;verticalAlign=bottom;endArrow=block;curved=0;rounded=0;entryX=0;entryY=0;entryDx=0;entryDy=5;" parent="1" source="NppBiu7GB2F2AbxF_H7_-1" edge="1">
          <mxGeometry relative="1" as="geometry">
            <mxPoint x="130" y="300" as="sourcePoint" />
            <mxPoint x="285" y="300" as="targetPoint" />
          </mxGeometry>
        </mxCell>
        <mxCell id="vmzCPV0AZ8NfDSpAhuxM-62" value="4. GET/games" style="html=1;verticalAlign=bottom;endArrow=block;curved=0;rounded=0;" parent="1" source="NppBiu7GB2F2AbxF_H7_-1" edge="1">
          <mxGeometry relative="1" as="geometry">
            <mxPoint x="90" y="440.00000000000006" as="sourcePoint" />
            <mxPoint x="284" y="440" as="targetPoint" />
          </mxGeometry>
        </mxCell>
        <mxCell id="vmzCPV0AZ8NfDSpAhuxM-68" value="Response 200" style="html=1;verticalAlign=bottom;endArrow=open;dashed=1;endSize=8;curved=0;rounded=0;" parent="1" target="NppBiu7GB2F2AbxF_H7_-1" edge="1">
          <mxGeometry relative="1" as="geometry">
            <mxPoint x="130" y="235" as="targetPoint" />
            <mxPoint x="285" y="235" as="sourcePoint" />
          </mxGeometry>
        </mxCell>
        <mxCell id="vmzCPV0AZ8NfDSpAhuxM-69" value="&lt;span style=&quot;color: rgb(0, 0, 0); font-family: Helvetica; font-size: 11px; font-style: normal; font-variant-ligatures: normal; font-variant-caps: normal; font-weight: 400; letter-spacing: normal; orphans: 2; text-align: center; text-indent: 0px; text-transform: none; widows: 2; word-spacing: 0px; -webkit-text-stroke-width: 0px; background-color: rgb(255, 255, 255); text-decoration-thickness: initial; text-decoration-style: initial; text-decoration-color: initial; float: none; display: inline !important;&quot;&gt;Log in successful&lt;/span&gt;" style="text;whiteSpace=wrap;html=1;" parent="1" vertex="1">
          <mxGeometry x="135" y="230" width="105" height="25" as="geometry" />
        </mxCell>
        <mxCell id="vmzCPV0AZ8NfDSpAhuxM-71" value="&lt;div style=&quot;text-align: center;&quot;&gt;&lt;span style=&quot;font-size: 11px; background-color: rgb(255, 255, 255);&quot;&gt;Call current games list&lt;/span&gt;&lt;/div&gt;" style="text;whiteSpace=wrap;html=1;" parent="1" vertex="1">
          <mxGeometry x="121" y="434" width="115" height="20" as="geometry" />
        </mxCell>
        <mxCell id="vmzCPV0AZ8NfDSpAhuxM-72" value="Response 200" style="html=1;verticalAlign=bottom;endArrow=open;dashed=1;endSize=8;curved=0;rounded=0;" parent="1" edge="1">
          <mxGeometry relative="1" as="geometry">
            <mxPoint x="71.5" y="477" as="targetPoint" />
            <mxPoint x="285.5" y="478" as="sourcePoint" />
          </mxGeometry>
        </mxCell>
        <mxCell id="vmzCPV0AZ8NfDSpAhuxM-73" value="&lt;span style=&quot;color: rgb(0, 0, 0); font-family: Helvetica; font-size: 11px; font-style: normal; font-variant-ligatures: normal; font-variant-caps: normal; font-weight: 400; letter-spacing: normal; orphans: 2; text-align: center; text-indent: 0px; text-transform: none; widows: 2; word-spacing: 0px; -webkit-text-stroke-width: 0px; background-color: rgb(255, 255, 255); text-decoration-thickness: initial; text-decoration-style: initial; text-decoration-color: initial; float: none; display: inline !important;&quot;&gt;Current games list&lt;/span&gt;" style="text;whiteSpace=wrap;html=1;" parent="1" vertex="1">
          <mxGeometry x="127.5" y="470" width="105" height="20" as="geometry" />
        </mxCell>
        <mxCell id="hAvk1PhLZqWUbybdRGW0-5" value="Response 200" style="html=1;verticalAlign=bottom;endArrow=open;dashed=1;endSize=8;curved=0;rounded=0;" parent="1" target="NppBiu7GB2F2AbxF_H7_-1" edge="1">
          <mxGeometry relative="1" as="geometry">
            <mxPoint x="130" y="390" as="targetPoint" />
            <mxPoint x="285" y="390" as="sourcePoint" />
          </mxGeometry>
        </mxCell>
        <mxCell id="fCOKmyHahU0a3KJWpImN-1" value="&lt;div style=&quot;text-align: center;&quot;&gt;&lt;span style=&quot;font-size: 11px; background-color: rgb(255, 255, 255);&quot;&gt;Call games and trophies info by user id&lt;/span&gt;&lt;/div&gt;" style="text;whiteSpace=wrap;html=1;" parent="1" vertex="1">
          <mxGeometry x="80" y="295" width="200" height="20" as="geometry" />
        </mxCell>
        <mxCell id="fCOKmyHahU0a3KJWpImN-3" value="GET/v1/users/{accountId}/trophyTitles" style="html=1;verticalAlign=bottom;endArrow=block;curved=0;rounded=0;" parent="1" target="vmzCPV0AZ8NfDSpAhuxM-65" edge="1">
          <mxGeometry relative="1" as="geometry">
            <mxPoint x="300" y="320" as="sourcePoint" />
            <mxPoint x="445" y="320" as="targetPoint" />
          </mxGeometry>
        </mxCell>
        <mxCell id="fCOKmyHahU0a3KJWpImN-4" value="Response 200" style="html=1;verticalAlign=bottom;endArrow=open;dashed=1;endSize=8;curved=0;rounded=0;" parent="1" source="vmzCPV0AZ8NfDSpAhuxM-65" edge="1">
          <mxGeometry relative="1" as="geometry">
            <mxPoint x="300" y="370" as="targetPoint" />
            <mxPoint x="455" y="370" as="sourcePoint" />
          </mxGeometry>
        </mxCell>
        <mxCell id="fCOKmyHahU0a3KJWpImN-5" value="&lt;div style=&quot;text-align: center;&quot;&gt;&lt;span style=&quot;font-size: 11px; background-color: rgb(255, 255, 255);&quot;&gt;Call current games info by id&lt;/span&gt;&lt;/div&gt;" style="text;whiteSpace=wrap;html=1;" parent="1" vertex="1">
          <mxGeometry x="332" y="315" width="148" height="20" as="geometry" />
        </mxCell>
        <mxCell id="fCOKmyHahU0a3KJWpImN-6" value="&lt;div style=&quot;text-align: center;&quot;&gt;&lt;span style=&quot;font-size: 11px; background-color: rgb(255, 255, 255);&quot;&gt;Games and trophies info by id&lt;/span&gt;&lt;/div&gt;" style="text;whiteSpace=wrap;html=1;" parent="1" vertex="1">
          <mxGeometry x="330" y="363" width="160" height="20" as="geometry" />
        </mxCell>
        <mxCell id="fCOKmyHahU0a3KJWpImN-7" value="&lt;div style=&quot;text-align: center;&quot;&gt;&lt;span style=&quot;font-size: 11px; background-color: rgb(255, 255, 255);&quot;&gt;Games and trophies info by user id&lt;/span&gt;&lt;/div&gt;" style="text;whiteSpace=wrap;html=1;" parent="1" vertex="1">
          <mxGeometry x="90" y="383" width="190" height="20" as="geometry" />
        </mxCell>
        <mxCell id="fCOKmyHahU0a3KJWpImN-8" style="edgeStyle=orthogonalEdgeStyle;rounded=0;orthogonalLoop=1;jettySize=auto;html=1;exitX=0.5;exitY=1;exitDx=0;exitDy=0;" parent="1" source="vmzCPV0AZ8NfDSpAhuxM-57" target="vmzCPV0AZ8NfDSpAhuxM-57" edge="1">
          <mxGeometry relative="1" as="geometry" />
        </mxCell>
        <mxCell id="fCOKmyHahU0a3KJWpImN-11" value="&lt;span style=&quot;color: rgb(0, 0, 0); font-family: Helvetica; font-size: 11px; font-style: normal; font-variant-ligatures: normal; font-variant-caps: normal; font-weight: 400; letter-spacing: normal; orphans: 2; text-align: center; text-indent: 0px; text-transform: none; widows: 2; word-spacing: 0px; -webkit-text-stroke-width: 0px; background-color: rgb(255, 255, 255); text-decoration-thickness: initial; text-decoration-style: initial; text-decoration-color: initial; float: none; display: inline !important;&quot;&gt;User was registered&lt;/span&gt;" style="text;whiteSpace=wrap;html=1;" parent="1" vertex="1">
          <mxGeometry x="127" y="140" width="105" height="20" as="geometry" />
        </mxCell>
        <mxCell id="FFG5KTFYHdc_e0uMJ6qi-1" value="5. GET/games/{Game_id}" style="html=1;verticalAlign=bottom;endArrow=block;curved=0;rounded=0;" parent="1" edge="1">
          <mxGeometry relative="1" as="geometry">
            <mxPoint x="71.5" y="540" as="sourcePoint" />
            <mxPoint x="285.5" y="540" as="targetPoint" />
          </mxGeometry>
        </mxCell>
        <mxCell id="FFG5KTFYHdc_e0uMJ6qi-3" value="&lt;div style=&quot;text-align: center;&quot;&gt;&lt;span style=&quot;font-size: 11px; background-color: rgb(255, 255, 255);&quot;&gt;Call game by id&lt;/span&gt;&lt;/div&gt;" style="text;whiteSpace=wrap;html=1;" parent="1" vertex="1">
          <mxGeometry x="135" y="535" width="115" height="20" as="geometry" />
        </mxCell>
        <mxCell id="FFG5KTFYHdc_e0uMJ6qi-4" value="Response 200" style="html=1;verticalAlign=bottom;endArrow=open;dashed=1;endSize=8;curved=0;rounded=0;" parent="1" edge="1">
          <mxGeometry relative="1" as="geometry">
            <mxPoint x="71.5" y="580" as="targetPoint" />
            <mxPoint x="285.5" y="581" as="sourcePoint" />
          </mxGeometry>
        </mxCell>
        <mxCell id="FFG5KTFYHdc_e0uMJ6qi-5" value="&lt;div style=&quot;text-align: center;&quot;&gt;&lt;span style=&quot;font-size: 11px; background-color: rgb(255, 255, 255);&quot;&gt;Game by id&lt;/span&gt;&lt;/div&gt;" style="text;whiteSpace=wrap;html=1;" parent="1" vertex="1">
          <mxGeometry x="149" y="575" width="115" height="20" as="geometry" />
        </mxCell>
        <mxCell id="FFG5KTFYHdc_e0uMJ6qi-6" value="6. GET/users" style="html=1;verticalAlign=bottom;endArrow=block;curved=0;rounded=0;" parent="1" edge="1">
          <mxGeometry relative="1" as="geometry">
            <mxPoint x="71.5" y="636" as="sourcePoint" />
            <mxPoint x="285.5" y="636" as="targetPoint" />
          </mxGeometry>
        </mxCell>
        <mxCell id="FFG5KTFYHdc_e0uMJ6qi-7" value="Response 200" style="html=1;verticalAlign=bottom;endArrow=open;dashed=1;endSize=8;curved=0;rounded=0;" parent="1" edge="1">
          <mxGeometry relative="1" as="geometry">
            <mxPoint x="71.5" y="675" as="targetPoint" />
            <mxPoint x="285.5" y="676" as="sourcePoint" />
          </mxGeometry>
        </mxCell>
        <mxCell id="FFG5KTFYHdc_e0uMJ6qi-8" value="&lt;div style=&quot;text-align: center;&quot;&gt;&lt;span style=&quot;font-size: 11px; background-color: rgb(255, 255, 255);&quot;&gt;Call current users list&lt;/span&gt;&lt;/div&gt;" style="text;whiteSpace=wrap;html=1;" parent="1" vertex="1">
          <mxGeometry x="125" y="630" width="115" height="20" as="geometry" />
        </mxCell>
        <mxCell id="FFG5KTFYHdc_e0uMJ6qi-9" value="&lt;div style=&quot;text-align: center;&quot;&gt;&lt;span style=&quot;font-size: 11px; background-color: rgb(255, 255, 255);&quot;&gt;Current users list&lt;/span&gt;&lt;/div&gt;" style="text;whiteSpace=wrap;html=1;" parent="1" vertex="1">
          <mxGeometry x="135" y="670" width="115" height="20" as="geometry" />
        </mxCell>
        <mxCell id="FFG5KTFYHdc_e0uMJ6qi-11" value="7. GET/users/{User_id}" style="html=1;verticalAlign=bottom;endArrow=block;curved=0;rounded=0;" parent="1" edge="1">
          <mxGeometry relative="1" as="geometry">
            <mxPoint x="71.5" y="735" as="sourcePoint" />
            <mxPoint x="285.5" y="735" as="targetPoint" />
          </mxGeometry>
        </mxCell>
        <mxCell id="FFG5KTFYHdc_e0uMJ6qi-13" value="Response 200" style="html=1;verticalAlign=bottom;endArrow=open;dashed=1;endSize=8;curved=0;rounded=0;" parent="1" edge="1">
          <mxGeometry relative="1" as="geometry">
            <mxPoint x="71.5" y="778" as="targetPoint" />
            <mxPoint x="285.5" y="779" as="sourcePoint" />
          </mxGeometry>
        </mxCell>
        <mxCell id="FFG5KTFYHdc_e0uMJ6qi-14" value="&lt;div style=&quot;text-align: center;&quot;&gt;&lt;span style=&quot;font-size: 11px; background-color: rgb(255, 255, 255);&quot;&gt;Call user by id&lt;/span&gt;&lt;/div&gt;" style="text;whiteSpace=wrap;html=1;" parent="1" vertex="1">
          <mxGeometry x="144" y="730" width="77" height="20" as="geometry" />
        </mxCell>
        <mxCell id="FFG5KTFYHdc_e0uMJ6qi-15" value="&lt;div style=&quot;text-align: center;&quot;&gt;&lt;span style=&quot;font-size: 11px; background-color: rgb(255, 255, 255);&quot;&gt;User by id&lt;/span&gt;&lt;/div&gt;" style="text;whiteSpace=wrap;html=1;" parent="1" vertex="1">
          <mxGeometry x="150" y="775" width="77" height="20" as="geometry" />
        </mxCell>
        <mxCell id="FFG5KTFYHdc_e0uMJ6qi-16" value="8. PUT/users/{User_id}" style="html=1;verticalAlign=bottom;endArrow=block;curved=0;rounded=0;" parent="1" edge="1">
          <mxGeometry relative="1" as="geometry">
            <mxPoint x="71.5" y="840" as="sourcePoint" />
            <mxPoint x="285.5" y="840" as="targetPoint" />
          </mxGeometry>
        </mxCell>
        <mxCell id="FFG5KTFYHdc_e0uMJ6qi-17" value="Response 200" style="html=1;verticalAlign=bottom;endArrow=open;dashed=1;endSize=8;curved=0;rounded=0;" parent="1" edge="1">
          <mxGeometry relative="1" as="geometry">
            <mxPoint x="71.5" y="885" as="targetPoint" />
            <mxPoint x="285.5" y="886" as="sourcePoint" />
          </mxGeometry>
        </mxCell>
        <mxCell id="FFG5KTFYHdc_e0uMJ6qi-18" value="&lt;div style=&quot;text-align: center;&quot;&gt;&lt;span style=&quot;font-size: 11px; background-color: rgb(255, 255, 255);&quot;&gt;Update user&lt;/span&gt;&lt;/div&gt;" style="text;whiteSpace=wrap;html=1;" parent="1" vertex="1">
          <mxGeometry x="147" y="834" width="77" height="20" as="geometry" />
        </mxCell>
        <mxCell id="FFG5KTFYHdc_e0uMJ6qi-19" value="&lt;div style=&quot;text-align: center;&quot;&gt;&lt;font style=&quot;font-size: 11px;&quot;&gt;User succesfully updated&lt;/font&gt;&lt;br&gt;&lt;/div&gt;" style="text;whiteSpace=wrap;html=1;" parent="1" vertex="1">
          <mxGeometry x="112.5" y="880" width="140" height="20" as="geometry" />
        </mxCell>
        <mxCell id="FFG5KTFYHdc_e0uMJ6qi-21" value="9. DELETE/users/{User_id}" style="html=1;verticalAlign=bottom;endArrow=block;curved=0;rounded=0;" parent="1" edge="1">
          <mxGeometry relative="1" as="geometry">
            <mxPoint x="71.5" y="945" as="sourcePoint" />
            <mxPoint x="285.5" y="945" as="targetPoint" />
          </mxGeometry>
        </mxCell>
        <mxCell id="FFG5KTFYHdc_e0uMJ6qi-22" value="&lt;div style=&quot;text-align: center;&quot;&gt;&lt;span style=&quot;font-size: 11px; background-color: rgb(255, 255, 255);&quot;&gt;Delete user&lt;/span&gt;&lt;/div&gt;" style="text;whiteSpace=wrap;html=1;" parent="1" vertex="1">
          <mxGeometry x="149" y="940" width="77" height="20" as="geometry" />
        </mxCell>
        <mxCell id="FFG5KTFYHdc_e0uMJ6qi-23" value="Response 200" style="html=1;verticalAlign=bottom;endArrow=open;dashed=1;endSize=8;curved=0;rounded=0;" parent="1" edge="1">
          <mxGeometry relative="1" as="geometry">
            <mxPoint x="71.5" y="989" as="targetPoint" />
            <mxPoint x="285.5" y="990" as="sourcePoint" />
          </mxGeometry>
        </mxCell>
        <mxCell id="FFG5KTFYHdc_e0uMJ6qi-24" value="&lt;span style=&quot;font-size: 11px;&quot;&gt;User succesfully deleted&lt;/span&gt;" style="text;whiteSpace=wrap;html=1;" parent="1" vertex="1">
          <mxGeometry x="115" y="985" width="140" height="20" as="geometry" />
        </mxCell>
      </root>
    </mxGraphModel>
  </diagram>
</mxfile>
